<svg aria-hidden="true" style="position: absolute; width: 0; height: 0; overflow: hidden;" version="1.1" xmlns="http://www.w3.org/2000/svg" xmlns:xlink="http://www.w3.org/1999/xlink">
<defs>
<symbol id="gps" viewBox="0 0 32 32">
<path d="M16 10.333c-1.473 0-2.667 1.194-2.667 2.667s1.194 2.667 2.667 2.667 2.667-1.194 2.667-2.667c0-1.473-1.194-2.667-2.667-2.667zM10.667 13c0-2.946 2.388-5.333 5.333-5.333s5.333 2.388 5.333 5.333c0 2.945-2.388 5.333-5.333 5.333s-5.333-2.388-5.333-5.333z"></path>
<path d="M16 4.333c-4.826 0-8.667 3.781-8.667 8.359 0 3.732 2.243 7.501 4.694 10.465 1.203 1.455 2.41 2.661 3.317 3.503 0.243 0.225 0.463 0.424 0.655 0.593 0.192-0.17 0.413-0.368 0.655-0.593 0.907-0.842 2.114-2.047 3.317-3.503 2.451-2.965 4.694-6.734 4.694-10.465 0-4.578-3.841-8.359-8.667-8.359zM16 29c-0.825 1.047-0.825 1.047-0.826 1.047l-0.003-0.003-0.008-0.006-0.026-0.021c-0.022-0.018-0.053-0.043-0.093-0.075-0.079-0.065-0.193-0.159-0.337-0.281-0.287-0.243-0.693-0.597-1.178-1.047-0.968-0.899-2.261-2.19-3.558-3.757-2.549-3.082-5.306-7.467-5.306-12.165 0-6.128 5.114-11.026 11.333-11.026s11.333 4.897 11.333 11.026c0 4.698-2.757 9.083-5.306 12.165-1.297 1.568-2.59 2.859-3.558 3.757-0.485 0.45-0.891 0.804-1.178 1.047-0.143 0.122-0.257 0.216-0.337 0.281-0.040 0.032-0.071 0.057-0.093 0.075l-0.026 0.021-0.008 0.006-0.002 0.002c-0 0-0.002 0.001-0.827-1.046zM16 29l0.825 1.047c-0.484 0.381-1.167 0.381-1.651-0.001l0.826-1.047z"></path>
</symbol>
<symbol id="gps-black" viewBox="0 0 32 32">
<path d="M17.221 29.921c-0.699 0.647-1.743 0.647-2.442 0-2.865-2.651-9.779-9.786-9.779-16.921 0-6.075 4.925-11 11-11s11 4.925 11 11c0 7.135-6.914 14.27-9.779 16.921zM16 17.5c2.485 0 4.5-2.015 4.5-4.5s-2.015-4.5-4.5-4.5-4.5 2.015-4.5 4.5c0 2.485 2.015 4.5 4.5 4.5z"></path>
</symbol>
<symbol id="back" viewBox="0 0 32 32">
<path d="M11.943 4.391c-0.521-0.521-1.365-0.521-1.886 0l-7 7c-0.521 0.521-0.521 1.365 0 1.886l7 7c0.521 0.521 1.365 0.521 1.886 0s0.521-1.365 0-1.886l-4.724-4.724h13.781c3.13 0 5.667 2.537 5.667 5.667s-2.537 5.667-5.667 5.667h-4c-0.736 0-1.333 0.597-1.333 1.333s0.597 1.333 1.333 1.333h4c4.602 0 8.333-3.731 8.333-8.333s-3.731-8.333-8.333-8.333h-13.781l4.724-4.724c0.521-0.521 0.521-1.365 0-1.886z"></path>
</symbol>
<symbol id="convert" viewBox="0 0 32 32">
<path d="M2.8 2.667c0.736 0 1.333 0.597 1.333 1.333v5.915c2.211-4.303 6.693-7.248 11.867-7.248 5.808 0 10.745 3.712 12.574 8.889 0.245 0.694-0.119 1.456-0.813 1.701s-1.456-0.118-1.701-0.813c-1.465-4.145-5.418-7.111-10.060-7.111-3.947 0-7.395 2.144-9.24 5.333h4.040c0.736 0 1.333 0.597 1.333 1.333s-0.597 1.333-1.333 1.333h-8c-0.736 0-1.333-0.597-1.333-1.333v-8c0-0.736 0.597-1.333 1.333-1.333z"></path>
<path d="M4.236 18.743c0.694-0.245 1.456 0.118 1.701 0.813 1.465 4.145 5.418 7.111 10.060 7.111 3.947 0 7.395-2.144 9.24-5.333h-4.040c-0.736 0-1.333-0.597-1.333-1.333s0.597-1.333 1.333-1.333h8c0.736 0 1.333 0.597 1.333 1.333v8c0 0.736-0.597 1.333-1.333 1.333s-1.333-0.597-1.333-1.333v-5.915c-2.211 4.303-6.693 7.248-11.867 7.248-5.807 0-10.745-3.712-12.574-8.889-0.245-0.694 0.119-1.456 0.813-1.701z"></path>
</symbol>
<symbol id="expand" viewBox="0 0 32 32">
<path d="M4 5.333c0-0.736 0.597-1.333 1.333-1.333h6.667c0.736 0 1.333 0.597 1.333 1.333s-0.597 1.333-1.333 1.333h-3.448l7.448 7.448 7.448-7.448h-3.448c-0.736 0-1.333-0.597-1.333-1.333s0.597-1.333 1.333-1.333h6.667c0.736 0 1.333 0.597 1.333 1.333v6.667c0 0.736-0.597 1.333-1.333 1.333s-1.333-0.597-1.333-1.333v-3.448l-7.448 7.448 7.448 7.448v-3.448c0-0.736 0.597-1.333 1.333-1.333s1.333 0.597 1.333 1.333v6.667c0 0.736-0.597 1.333-1.333 1.333h-6.667c-0.736 0-1.333-0.597-1.333-1.333s0.597-1.333 1.333-1.333h3.448l-7.448-7.448-7.448 7.448h3.448c0.736 0 1.333 0.597 1.333 1.333s-0.597 1.333-1.333 1.333h-6.667c-0.736 0-1.333-0.597-1.333-1.333v-6.667c0-0.736 0.597-1.333 1.333-1.333s1.333 0.597 1.333 1.333v3.448l7.448-7.448-7.448-7.448v3.448c0 0.736-0.597 1.333-1.333 1.333s-1.333-0.597-1.333-1.333v-6.667z"></path>
</symbol>
<symbol id="fluid-horizontal" viewBox="0 0 32 32">
<path d="M10.943 10.391c0.521 0.521 0.521 1.365 0 1.886l-2.391 2.391h14.895l-2.391-2.391c-0.521-0.521-0.521-1.365 0-1.886s1.365-0.521 1.886 0l4.667 4.667c0.521 0.521 0.521 1.365 0 1.886l-4.667 4.667c-0.521 0.521-1.365 0.521-1.886 0s-0.521-1.365 0-1.886l2.391-2.391h-14.895l2.391 2.391c0.521 0.521 0.521 1.365 0 1.886s-1.365 0.521-1.886 0l-4.667-4.667c-0.521-0.521-0.521-1.365 0-1.886l4.667-4.667c0.521-0.521 1.365-0.521 1.886 0z"></path>
</symbol>
<symbol id="fluid-vertical" viewBox="0 0 32 32">
<path d="M10.391 21.057c0.521-0.521 1.365-0.521 1.886 0l2.391 2.391v-14.895l-2.391 2.391c-0.521 0.521-1.365 0.521-1.886 0s-0.521-1.365 0-1.886l4.667-4.667c0.521-0.521 1.365-0.521 1.886 0l4.667 4.667c0.521 0.521 0.521 1.365 0 1.886s-1.365 0.521-1.886 0l-2.391-2.391v14.895l2.391-2.391c0.521-0.521 1.365-0.521 1.886 0s0.521 1.365 0 1.886l-4.667 4.667c-0.521 0.521-1.365 0.521-1.886 0l-4.667-4.667c-0.521-0.521-0.521-1.365 0-1.886z"></path>
</symbol>
<symbol id="forward" viewBox="0 0 32 32">
<path d="M20.057 4.391c0.521-0.521 1.365-0.521 1.886 0l7 7c0.521 0.521 0.521 1.365 0 1.886l-7 7c-0.521 0.521-1.365 0.521-1.886 0s-0.521-1.365 0-1.886l4.724-4.724h-13.781c-3.13 0-5.667 2.537-5.667 5.667s2.537 5.667 5.667 5.667h4c0.736 0 1.333 0.597 1.333 1.333s-0.597 1.333-1.333 1.333h-4c-4.602 0-8.333-3.731-8.333-8.333s3.731-8.333 8.333-8.333h13.781l-4.724-4.724c-0.521-0.521-0.521-1.365 0-1.886z"></path>
</symbol>
<symbol id="horizontal" viewBox="0 0 32 32">
<path d="M21.724 4.391c0.521-0.521 1.365-0.521 1.886 0l4.667 4.667c0.521 0.521 0.521 1.365 0 1.886l-4.667 4.667c-0.521 0.521-1.365 0.521-1.886 0s-0.521-1.365 0-1.886l2.391-2.391h-18.114c-0.736 0-1.333-0.597-1.333-1.333s0.597-1.333 1.333-1.333h18.114l-2.391-2.391c-0.521-0.521-0.521-1.365 0-1.886zM10.276 16.391c0.521 0.521 0.521 1.365 0 1.886l-2.391 2.391h18.114c0.736 0 1.333 0.597 1.333 1.333s-0.597 1.333-1.333 1.333h-18.114l2.391 2.391c0.521 0.521 0.521 1.365 0 1.886s-1.365 0.521-1.886 0l-4.667-4.667c-0.521-0.521-0.521-1.365 0-1.886l4.667-4.667c0.521-0.521 1.365-0.521 1.886 0z"></path>
</symbol>
<symbol id="reload" viewBox="0 0 32 32">
<path d="M9.012 3.343c0.711 0.191 1.133 0.922 0.943 1.633l-0.631 2.355 0.676-0.391c5.74-3.314 13.079-1.347 16.392 4.392s1.347 13.079-4.392 16.392c-5.739 3.314-13.079 1.347-16.392-4.392-0.368-0.638-0.15-1.453 0.488-1.821s1.453-0.15 1.821 0.488c2.577 4.464 8.286 5.994 12.75 3.416s5.994-8.285 3.416-12.75-8.285-5.994-12.75-3.416l-0.676 0.391 2.355 0.631c0.711 0.191 1.133 0.922 0.943 1.633s-0.922 1.133-1.633 0.943l-5.464-1.464c-0.711-0.191-1.133-0.922-0.943-1.633l1.464-5.464c0.191-0.711 0.922-1.133 1.633-0.943z"></path>
</symbol>
<symbol id="share-arrow" viewBox="0 0 32 32">
<path d="M30.667 14.658l-12.19-13.324v7.95h-2.592c-8.037 0-14.551 6.494-14.551 14.504v4.213l1.151-1.257c3.914-4.275 9.452-6.71 15.258-6.71h0.734v7.949l12.19-13.324z"></path>
</symbol>
<symbol id="up-down-select" viewBox="0 0 32 32">
<path d="M16 1.333l9.238 12h-18.475l9.238-12z"></path>
<path d="M16 30.667l-9.238-13h18.475l-9.238 13z"></path>
</symbol>
<symbol id="vertical" viewBox="0 0 32 32">
<path d="M9.057 3.724c0.521-0.521 1.365-0.521 1.886 0l4.667 4.667c0.521 0.521 0.521 1.365 0 1.886s-1.365 0.521-1.886 0l-2.391-2.391v18.114c0 0.736-0.597 1.333-1.333 1.333s-1.333-0.597-1.333-1.333v-18.114l-2.391 2.391c-0.521 0.521-1.365 0.521-1.886 0s-0.521-1.365 0-1.886l4.667-4.667zM22 4.667c0.736 0 1.333 0.597 1.333 1.333v18.114l2.391-2.391c0.521-0.521 1.365-0.521 1.886 0s0.521 1.365 0 1.886l-4.667 4.667c-0.521 0.521-1.365 0.521-1.886 0l-4.667-4.667c-0.521-0.521-0.521-1.365 0-1.886s1.365-0.521 1.886 0l2.391 2.391v-18.114c0-0.736 0.597-1.333 1.333-1.333z"></path>
</symbol>
<symbol id="alert" viewBox="0 0 32 32">
<path d="M16 19.36c-0.707 0-1.28-0.573-1.28-1.28v-7.2c0-0.707 0.573-1.28 1.28-1.28s1.28 0.573 1.28 1.28v7.2c0 0.707-0.573 1.28-1.28 1.28z"></path>
<path d="M17.28 22.4c0 0.707-0.573 1.28-1.28 1.28s-1.28-0.573-1.28-1.28c0-0.707 0.573-1.28 1.28-1.28s1.28 0.573 1.28 1.28z"></path>
<path d="M30.187 23.010c1.509 2.56-0.337 5.79-3.308 5.79h-21.759c-2.971 0-4.817-3.23-3.308-5.79l11.541-19.578c0.552-0.937 1.559-1.512 2.647-1.512s2.094 0.575 2.647 1.512l11.541 19.578zM26.879 26.24c0.99 0 1.606-1.077 1.103-1.93l-11.541-19.578c-0.092-0.156-0.26-0.252-0.441-0.252s-0.349 0.096-0.441 0.252l-11.541 19.578c-0.503 0.853 0.112 1.93 1.103 1.93h21.759z"></path>
</symbol>
<symbol id="alert-octagon" viewBox="0 0 32 32">
<path d="M8.325 3.157c0.792-0.792 1.867-1.237 2.987-1.237h9.377c1.12 0 2.195 0.445 2.987 1.237l5.168 5.168c0.792 0.792 1.237 1.867 1.237 2.987v9.377c0 1.12-0.445 2.195-1.237 2.987l-5.168 5.168c-0.792 0.792-1.866 1.237-2.987 1.237h-9.377c-1.12 0-2.195-0.445-2.987-1.237l-5.168-5.168c-0.792-0.792-1.237-1.866-1.237-2.987v-9.377c0-1.12 0.445-2.195 1.237-2.987l5.168-5.168zM11.312 4.48c-0.441 0-0.865 0.175-1.177 0.487l-5.168 5.168c-0.312 0.312-0.487 0.735-0.487 1.177v9.377c0 0.441 0.175 0.864 0.487 1.177l5.168 5.168c0.312 0.312 0.735 0.487 1.177 0.487h9.377c0.441 0 0.864-0.175 1.177-0.487l5.168-5.168c0.312-0.312 0.487-0.735 0.487-1.177v-9.377c0-0.441-0.175-0.865-0.487-1.177l-5.168-5.168c-0.312-0.312-0.735-0.487-1.177-0.487h-9.377z"></path>
<path d="M17.28 21.76c0 0.707-0.573 1.28-1.28 1.28s-1.28-0.573-1.28-1.28c0-0.707 0.573-1.28 1.28-1.28s1.28 0.573 1.28 1.28z"></path>
<path d="M16 18.72c-0.707 0-1.28-0.573-1.28-1.28v-7.2c0-0.707 0.573-1.28 1.28-1.28s1.28 0.573 1.28 1.28v7.2c0 0.707-0.573 1.28-1.28 1.28z"></path>
</symbol>
<symbol id="attach" viewBox="0 0 32 32">
<path d="M24.574 5.246c-2.408-2.408-6.313-2.408-8.721 0l-8.456 8.456c-0.521 0.521-1.365 0.521-1.886 0s-0.521-1.365 0-1.886l8.456-8.456c3.45-3.45 9.043-3.45 12.492 0s3.45 9.043 0 12.492l-11.374 11.374c-2.473 2.473-6.483 2.473-8.957 0s-2.473-6.483 0-8.957l0.005-0.005 8.587-8.495c0.001-0.001 0.002-0.002 0.003-0.003 1.464-1.461 3.844-1.572 5.372-0.043 1.497 1.497 1.497 3.924 0 5.421l-6.010 6.010c-0.521 0.521-1.365 0.521-1.886 0s-0.521-1.365 0-1.886l6.010-6.010c0.456-0.456 0.456-1.194 0-1.65-0.423-0.423-1.115-0.442-1.604 0.046l-0.005 0.005-8.587 8.495c-0.001 0.001-0.002 0.002-0.002 0.002-1.43 1.432-1.429 3.752 0.002 5.183s3.754 1.432 5.185 0l11.374-11.374c2.408-2.408 2.408-6.313 0-8.721z"></path>
</symbol>
<symbol id="bag" viewBox="0 0 32 32">
<path d="M8 4.333c-1.473 0-2.667 1.194-2.667 2.667v18c0 1.473 1.194 2.667 2.667 2.667h16c1.473 0 2.667-1.194 2.667-2.667v-18c0-1.473-1.194-2.667-2.667-2.667h-16zM2.667 7c0-2.946 2.388-5.333 5.333-5.333h16c2.945 0 5.333 2.388 5.333 5.333v18c0 2.945-2.388 5.333-5.333 5.333h-16c-2.946 0-5.333-2.388-5.333-5.333v-18zM22 6.667c0.736 0 1.333 0.597 1.333 1.333v2c0 4.050-3.283 7.333-7.333 7.333s-7.333-3.283-7.333-7.333v-2c0-0.736 0.597-1.333 1.333-1.333s1.333 0.597 1.333 1.333v2c0 2.577 2.089 4.667 4.667 4.667s4.667-2.089 4.667-4.667v-2c0-0.736 0.597-1.333 1.333-1.333z"></path>
</symbol>
<symbol id="behance" viewBox="0 0 32 32">
<path d="M16.487 20.192c0-2.628-1.172-4.571-3.594-5.299 1.767-0.897 2.689-2.257 2.689-4.372 0-4.17-2.923-5.187-6.296-5.187h-9.286v20.937h9.546c3.579 0 6.941-1.825 6.941-6.079zM4.329 8.907h4.062c1.562 0 2.967 0.466 2.967 2.392 0 1.778-1.094 2.493-2.64 2.493h-4.389v-4.885zM4.327 22.715v-5.766h4.718c1.906 0 3.111 0.845 3.111 2.99 0 2.115-1.439 2.776-3.201 2.776h-4.629z"></path>
<path d="M25.066 26.667c3.406 0 5.612-1.631 6.673-5.099h-3.457c-0.372 1.294-1.906 1.978-3.095 1.978-2.295 0-3.501-1.429-3.501-3.859h10.286c0.325-4.861-2.214-9.004-6.908-9.004-4.346 0-7.296 3.473-7.296 8.023 0 4.722 2.795 7.96 7.297 7.96zM24.943 13.829c1.967 0 2.956 1.229 3.122 3.238h-6.373c0.129-1.993 1.374-3.238 3.251-3.238z"></path>
<path d="M20.893 6.433h7.985v2.062h-7.985v-2.062z"></path>
</symbol>
<symbol id="bell" viewBox="0 0 32 32">
<path d="M12.226 22.4h7.543l0.335 0.767c0.241 0.551 0.373 1.158 0.373 1.793 0 2.474-2.006 4.48-4.48 4.48s-4.48-2.006-4.48-4.48c0-0.635 0.133-1.242 0.373-1.793l0.335-0.767zM14.077 24.96c0 1.060 0.86 1.92 1.92 1.92s1.92-0.86 1.92-1.92h-3.84z"></path>
<path d="M16 5.76c-3.77 0-7.040 3.667-7.040 7.68v4.267c0 1.746-0.822 3.39-2.219 4.437-0.027 0.020-0.039 0.036-0.044 0.044s-0.009 0.016-0.011 0.024c-0.005 0.018-0.007 0.051 0.006 0.091s0.035 0.065 0.050 0.077c0.007 0.005 0.014 0.009 0.023 0.012s0.028 0.008 0.062 0.008h18.347c0.034 0 0.053-0.005 0.062-0.008s0.017-0.007 0.023-0.012c0.015-0.012 0.036-0.036 0.050-0.077s0.011-0.073 0.006-0.091c-0.002-0.008-0.006-0.016-0.011-0.024s-0.018-0.023-0.044-0.044c-1.397-1.048-2.219-2.691-2.219-4.437v-4.267c0-4.013-3.27-7.68-7.040-7.68zM6.4 13.44c0-5.177 4.18-10.24 9.6-10.24s9.6 5.063 9.6 10.24v4.267c0 0.94 0.443 1.825 1.195 2.389 2.077 1.558 0.976 4.864-1.621 4.864h-18.347c-2.597 0-3.699-3.306-1.621-4.864 0.752-0.564 1.195-1.449 1.195-2.389v-4.267z"></path>
</symbol>
<symbol id="block" viewBox="0 0 32 32">
<path d="M6.057 26.005c-0.521-0.521-0.521-1.365 0-1.886l18-18c0.521-0.521 1.365-0.521 1.886 0s0.521 1.365 0 1.886l-18 18c-0.521 0.521-1.365 0.521-1.886 0z"></path>
<path d="M16 4c-6.627 0-12 5.373-12 12s5.373 12 12 12c6.627 0 12-5.373 12-12s-5.373-12-12-12zM1.333 16c0-8.1 6.566-14.667 14.667-14.667s14.667 6.566 14.667 14.667c0 8.1-6.567 14.667-14.667 14.667s-14.667-6.567-14.667-14.667z"></path>
</symbol>
<symbol id="bottom-Left" viewBox="0 0 32 32">
<path d="M24.943 7.057c0.521 0.521 0.521 1.365 0 1.886l-13.724 13.724h6.114c0.736 0 1.333 0.597 1.333 1.333s-0.597 1.333-1.333 1.333h-9.333c-0.736 0-1.333-0.597-1.333-1.333v-9.333c0-0.736 0.597-1.333 1.333-1.333s1.333 0.597 1.333 1.333v6.114l13.724-13.724c0.521-0.521 1.365-0.521 1.886 0z"></path>
</symbol>
<symbol id="bottom-Right" viewBox="0 0 32 32">
<path d="M7.057 7.057c0.521-0.521 1.365-0.521 1.886 0l13.724 13.724v-6.114c0-0.736 0.597-1.333 1.333-1.333s1.333 0.597 1.333 1.333v9.333c0 0.736-0.597 1.333-1.333 1.333h-9.333c-0.736 0-1.333-0.597-1.333-1.333s0.597-1.333 1.333-1.333h6.114l-13.724-13.724c-0.521-0.521-0.521-1.365 0-1.886z"></path>
</symbol>
<symbol id="burger-menu" viewBox="0 0 32 32">
<path d="M1.333 16c0-0.736 0.597-1.333 1.333-1.333h26.667c0.736 0 1.333 0.597 1.333 1.333s-0.597 1.333-1.333 1.333h-26.667c-0.736 0-1.333-0.597-1.333-1.333z"></path>
<path d="M1.333 24c0-0.736 0.597-1.333 1.333-1.333h26.667c0.736 0 1.333 0.597 1.333 1.333s-0.597 1.333-1.333 1.333h-26.667c-0.736 0-1.333-0.597-1.333-1.333z"></path>
<path d="M1.333 8c0-0.736 0.597-1.333 1.333-1.333h26.667c0.736 0 1.333 0.597 1.333 1.333s-0.597 1.333-1.333 1.333h-26.667c-0.736 0-1.333-0.597-1.333-1.333z"></path>
</symbol>
<symbol id="calendar" viewBox="0 0 32 32">
<path d="M10 1.667c0.736 0 1.333 0.597 1.333 1.333v0.667l9.333 0v-0.667c0-0.736 0.597-1.333 1.333-1.333s1.333 0.597 1.333 1.333v0.667h1.667c2.945 0 5.333 2.388 5.333 5.333v16c0 2.945-2.388 5.333-5.333 5.333h-18c-2.946 0-5.333-2.388-5.333-5.333v-16c0-2.946 2.388-5.333 5.333-5.333h1.667v-0.667c0-0.736 0.597-1.333 1.333-1.333zM8.667 6.333h-1.667c-1.473 0-2.667 1.194-2.667 2.667v1.667h23.333v-1.667c0-1.473-1.194-2.667-2.667-2.667h-1.667v0.667c0 0.736-0.597 1.333-1.333 1.333s-1.333-0.597-1.333-1.333v-0.667l-9.333-0v0.667c0 0.736-0.597 1.333-1.333 1.333s-1.333-0.597-1.333-1.333v-0.667zM27.667 13.333h-23.333v11.667c0 1.473 1.194 2.667 2.667 2.667h18c1.473 0 2.667-1.194 2.667-2.667v-11.667z"></path>
</symbol>
<symbol id="card" viewBox="0 0 32 32">
<path d="M5.667 6.333c-0.736 0-1.333 0.597-1.333 1.333v2h23.333v-2c0-0.736-0.597-1.333-1.333-1.333l-20.667-0zM27.667 12.333h-23.333v3.333h23.333v-3.333zM27.667 18.333h-23.333v6c0 0.736 0.597 1.333 1.333 1.333h20.667c0.736 0 1.333-0.597 1.333-1.333v-6zM1.667 7.667c0-2.209 1.791-4 4-4l20.667 0c2.209 0 4 1.791 4 4v16.667c0 2.209-1.791 4-4 4h-20.667c-2.209 0-4-1.791-4-4v-16.667z"></path>
</symbol>
<symbol id="cart" viewBox="0 0 32 32">
<path d="M4.189 4.011c-0.13-0.010-0.311-0.011-0.65-0.011h-2.206c-0.736 0-1.333-0.597-1.333-1.333s0.597-1.333 1.333-1.333h2.206c0.013 0 0.025 0 0.038 0 0.286-0 0.57-0 0.812 0.018 0.27 0.020 0.584 0.068 0.909 0.213 0.457 0.204 0.848 0.532 1.127 0.948 0.198 0.295 0.299 0.596 0.366 0.859 0.060 0.236 0.108 0.515 0.157 0.797 0.002 0.012 0.004 0.025 0.006 0.037l0.318 1.827 17.352 0.514c0.68 0.020 1.268 0.037 1.751 0.091 0.512 0.056 1.019 0.162 1.505 0.421 0.737 0.393 1.333 1.006 1.704 1.755 0.245 0.494 0.335 1.004 0.377 1.517 0.039 0.485 0.039 1.073 0.039 1.753v0.098c0 0.639 0 1.194-0.036 1.654-0.038 0.488-0.122 0.972-0.345 1.447-0.34 0.722-0.889 1.327-1.575 1.735-0.451 0.268-0.925 0.398-1.407 0.483-0.454 0.080-1.006 0.133-1.643 0.195l-12.979 1.256c-0.652 0.063-1.217 0.118-1.689 0.126-0.5 0.009-1-0.030-1.503-0.215-0.754-0.277-1.407-0.775-1.875-1.428-0.312-0.436-0.482-0.908-0.606-1.392-0.117-0.457-0.214-1.016-0.327-1.662l-1.69-9.717c-0.058-0.334-0.090-0.512-0.122-0.638-0.001-0.005-0.002-0.009-0.003-0.013-0.004-0-0.009-0.001-0.013-0.001zM7.738 8.714l0.897 5.16c0.123 0.708 0.203 1.162 0.291 1.504 0.084 0.327 0.15 0.445 0.192 0.504 0.156 0.218 0.373 0.384 0.625 0.476 0.068 0.025 0.2 0.057 0.537 0.052 0.353-0.006 0.813-0.050 1.528-0.119l12.882-1.247c0.698-0.067 1.145-0.112 1.485-0.171 0.324-0.057 0.444-0.112 0.506-0.149 0.229-0.136 0.412-0.337 0.525-0.578 0.031-0.065 0.074-0.19 0.099-0.518 0.027-0.344 0.028-0.794 0.028-1.495 0-0.745-0.001-1.224-0.030-1.59-0.028-0.35-0.076-0.481-0.108-0.547-0.124-0.249-0.322-0.454-0.568-0.585-0.065-0.034-0.194-0.086-0.543-0.124-0.365-0.040-0.844-0.055-1.589-0.077l-16.757-0.496z"></path>
<path d="M11.333 23.333c-0.736 0-1.333 0.597-1.333 1.333s0.597 1.333 1.333 1.333c0.736 0 1.333-0.597 1.333-1.333s-0.597-1.333-1.333-1.333zM7.333 24.667c0-2.209 1.791-4 4-4s4 1.791 4 4-1.791 4-4 4c-2.209 0-4-1.791-4-4z"></path>
<path d="M24 23.333c-0.736 0-1.333 0.597-1.333 1.333s0.597 1.333 1.333 1.333c0.736 0 1.333-0.597 1.333-1.333s-0.597-1.333-1.333-1.333zM20 24.667c0-2.209 1.791-4 4-4s4 1.791 4 4c0 2.209-1.791 4-4 4s-4-1.791-4-4z"></path>
</symbol>
<symbol id="chat" viewBox="0 0 32 32">
<path d="M29.231 14.090c-0.19 1.316-0.64 2.566-1.307 3.716 0.050 0.285 0.076 0.572 0.076 0.861 0 1.004-0.291 1.964-0.829 2.837-0.269 0.436-0.338 0.946-0.365 1.283-0.031 0.387-0.020 0.81 0.007 1.216 0.031 0.456 0.087 0.934 0.151 1.386-0.52-0.152-1.085-0.304-1.623-0.426-0.448-0.101-0.906-0.187-1.321-0.23-0.362-0.037-0.885-0.066-1.353 0.085-1.023 0.331-2.148 0.515-3.334 0.515-1.411 0-2.706-0.25-3.841-0.685-0.273 0.012-0.548 0.019-0.825 0.019-1.606 0-3.152-0.211-4.598-0.602 2.103 2.432 5.569 3.935 9.265 3.935 1.444 0 2.83-0.222 4.107-0.629 0.002 0 0.006 0 0.012-0 0.033-0.001 0.124-0.003 0.294 0.015 0.267 0.028 0.611 0.089 1.008 0.179 0.79 0.178 1.677 0.441 2.369 0.661 1.467 0.466 2.888-0.814 2.626-2.303-0.113-0.641-0.23-1.423-0.276-2.1-0.023-0.341-0.026-0.62-0.009-0.825 0.007-0.085 0.015-0.138 0.021-0.167 0.75-1.243 1.182-2.657 1.182-4.164 0-1.698-0.527-3.249-1.435-4.577z"></path>
<path d="M7.462 7.598c-1.797 1.374-2.796 3.179-2.796 5.069 0 0.943 0.245 1.851 0.706 2.695 0.175 0.322 0.225 0.653 0.243 0.878 0.019 0.245 0.010 0.497-0.012 0.732-0.043 0.471-0.144 1.005-0.266 1.531-0.143 0.615-0.326 1.271-0.511 1.887 0.704-0.256 1.474-0.518 2.204-0.731 0.59-0.172 1.185-0.321 1.716-0.405 0.457-0.072 1.119-0.143 1.69 0.054 1.28 0.443 2.713 0.693 4.231 0.693 2.863 0 5.405-0.889 7.204-2.264 1.797-1.374 2.796-3.179 2.796-5.069s-0.999-3.695-2.796-5.069c-1.799-1.375-4.341-2.264-7.204-2.264s-5.405 0.889-7.204 2.264zM5.842 5.479c2.303-1.761 5.427-2.813 8.824-2.813s6.52 1.051 8.824 2.813c2.305 1.762 3.843 4.291 3.843 7.187s-1.538 5.425-3.843 7.187c-2.303 1.761-5.428 2.813-8.824 2.813-1.791 0-3.501-0.292-5.054-0.823-0.002 0.004-0.128-0.008-0.45 0.043-0.372 0.059-0.846 0.174-1.385 0.331-1.074 0.313-2.28 0.757-3.199 1.114-1.591 0.619-3.213-0.909-2.677-2.537 0.284-0.863 0.619-1.953 0.838-2.895 0.11-0.474 0.181-0.873 0.208-1.168 0.009-0.103 0.012-0.177 0.011-0.228-0.614-1.173-0.959-2.47-0.959-3.837 0-2.896 1.538-5.425 3.843-7.187z"></path>
</symbol>
<symbol id="check" viewBox="0 0 32 32">
<path d="M16 30.667c8.087 0 14.667-6.579 14.667-14.667 0-1.396-0.195-2.771-0.581-4.089-0.19-0.648-0.867-1.020-1.516-0.83-0.648 0.189-1.019 0.868-0.83 1.516 0.32 1.094 0.482 2.24 0.482 3.403 0 6.739-5.483 12.222-12.222 12.222s-12.222-5.483-12.222-12.222c0-6.739 5.483-12.222 12.222-12.222 2.449 0 4.806 0.716 6.814 2.071 0.559 0.377 1.319 0.229 1.696-0.33s0.23-1.319-0.33-1.697c-2.414-1.628-5.243-2.488-8.181-2.488-8.087 0-14.667 6.579-14.667 14.667s6.58 14.667 14.667 14.667z"></path>
<path d="M29.724 3.057l-13.724 13.723-4.391-4.39c-0.521-0.521-1.365-0.521-1.885 0s-0.521 1.365 0 1.885l5.333 5.333c0.261 0.261 0.601 0.391 0.943 0.391s0.682-0.13 0.943-0.391l14.667-14.667c0.521-0.521 0.521-1.365 0-1.885s-1.365-0.521-1.885 0z"></path>
</symbol>
<symbol id="check-round" viewBox="0 0 32 32">
<path d="M16 4c-6.627 0-12 5.373-12 12s5.373 12 12 12c6.627 0 12-5.373 12-12s-5.373-12-12-12zM1.333 16c0-8.1 6.566-14.667 14.667-14.667s14.667 6.566 14.667 14.667c0 8.1-6.567 14.667-14.667 14.667s-14.667-6.567-14.667-14.667z"></path>
<path d="M22.915 11.031c0.535 0.506 0.559 1.349 0.054 1.885l-7.556 8c-0.252 0.267-0.602 0.418-0.969 0.418s-0.717-0.151-0.969-0.418l-4.444-4.706c-0.506-0.535-0.482-1.379 0.054-1.885s1.379-0.482 1.885 0.054l3.475 3.679 6.586-6.974c0.506-0.535 1.349-0.559 1.885-0.054z"></path>
</symbol>
<symbol id="clock" viewBox="0 0 32 32">
<path d="M17.333 8.667c0-0.736-0.597-1.333-1.333-1.333s-1.333 0.597-1.333 1.333v7.333c0 0.354 0.141 0.693 0.391 0.943l4 4c0.521 0.521 1.365 0.521 1.886 0s0.521-1.365 0-1.886l-3.609-3.609v-6.781z"></path>
<path d="M16 1.333c-8.1 0-14.667 6.566-14.667 14.667s6.566 14.667 14.667 14.667c8.1 0 14.667-6.567 14.667-14.667s-6.567-14.667-14.667-14.667zM4 16c0-6.627 5.373-12 12-12s12 5.373 12 12c0 6.627-5.373 12-12 12s-12-5.373-12-12z"></path>
</symbol>
<symbol id="closed-Eye" viewBox="0 0 32 32">
<path d="M10.957 25.279c0.706 0.208 1.448-0.196 1.656-0.903l0.969-3.291c1.605 0.33 3.234 0.33 4.839 0l0.968 3.29c0.208 0.706 0.949 1.111 1.655 0.903s1.111-0.949 0.903-1.655l-0.985-3.347c1.318-0.573 2.589-1.375 3.791-2.393l2.262 2.482c0.496 0.544 1.339 0.583 1.884 0.087s0.583-1.339 0.087-1.884l-2.325-2.551c0.874-0.976 1.7-2.082 2.47-3.313 0.39-0.624 0.2-1.447-0.424-1.837s-1.447-0.2-1.837 0.424c-0.927 1.483-1.925 2.733-2.966 3.756-1.596 1.57-3.286 2.605-4.979 3.15-1.933 0.623-3.915 0.623-5.849 0-1.693-0.545-3.383-1.58-4.979-3.15-1.041-1.024-2.039-2.273-2.966-3.756-0.39-0.624-1.213-0.814-1.837-0.424s-0.814 1.213-0.424 1.837c0.77 1.232 1.596 2.337 2.47 3.313l-2.325 2.551c-0.496 0.544-0.457 1.388 0.087 1.884s1.388 0.457 1.884-0.087l2.263-2.483c1.202 1.018 2.473 1.819 3.791 2.393l-0.985 3.347c-0.208 0.706 0.196 1.448 0.903 1.655z"></path>
</symbol>
<symbol id="close-round" viewBox="0 0 32 32">
<path d="M9.741 9.74c0.543-0.543 1.423-0.543 1.966 0l4.294 4.294 4.294-4.294c0.543-0.543 1.423-0.543 1.966 0s0.543 1.423 0 1.966l-4.294 4.294 4.294 4.294c0.543 0.543 0.543 1.423 0 1.966s-1.423 0.543-1.966 0l-4.294-4.294-4.294 4.294c-0.543 0.543-1.423 0.543-1.966 0s-0.543-1.423 0-1.965l4.294-4.294-4.294-4.294c-0.543-0.543-0.543-1.423 0-1.966z"></path>
<path d="M16 4c-6.627 0-12 5.373-12 12s5.373 12 12 12c6.627 0 12-5.373 12-12s-5.373-12-12-12zM1.333 16c0-8.1 6.566-14.667 14.667-14.667s14.667 6.566 14.667 14.667c0 8.1-6.567 14.667-14.667 14.667s-14.667-6.567-14.667-14.667z"></path>
</symbol>
<symbol id="comment" viewBox="0 0 32 32">
<path d="M27.667 19.667v-11.333c0-2.209-1.791-4-4-4l-15.333-0c-2.209 0-4 1.791-4 4v19.076l5.239-3.742h14.094c2.209 0 4-1.791 4-4zM30.333 8.333v11.333c0 3.682-2.985 6.667-6.667 6.667h-13.239l-4.544 3.246c-1.765 1.261-4.217-0.001-4.217-2.17v-19.076c0-3.682 2.985-6.667 6.667-6.667l15.333 0c3.682 0 6.667 2.985 6.667 6.667z"></path>
</symbol>
<symbol id="cross" viewBox="0 0 32 32">
<path d="M5.724 5.724c0.521-0.521 1.365-0.521 1.886 0l8.391 8.391 8.391-8.391c0.521-0.521 1.365-0.521 1.886 0s0.521 1.365 0 1.886l-8.391 8.391 8.391 8.391c0.521 0.521 0.521 1.365 0 1.886s-1.365 0.521-1.886 0l-8.391-8.391-8.391 8.391c-0.521 0.521-1.365 0.521-1.886 0s-0.521-1.365 0-1.886l8.391-8.391-8.391-8.391c-0.521-0.521-0.521-1.365 0-1.886z"></path>
</symbol>
<symbol id="danger" viewBox="0 0 32 32">
<path d="M16 4.48c-6.362 0-11.52 5.158-11.52 11.52s5.158 11.52 11.52 11.52c6.362 0 11.52-5.158 11.52-11.52s-5.158-11.52-11.52-11.52zM1.92 16c0-7.776 6.304-14.080 14.080-14.080s14.080 6.304 14.080 14.080c0 7.776-6.304 14.080-14.080 14.080s-14.080-6.304-14.080-14.080z"></path>
<path d="M17.28 21.12c0 0.707-0.573 1.28-1.28 1.28s-1.28-0.573-1.28-1.28c0-0.707 0.573-1.28 1.28-1.28s1.28 0.573 1.28 1.28z"></path>
<path d="M16 18.080c-0.707 0-1.28-0.573-1.28-1.28v-7.2c0-0.707 0.573-1.28 1.28-1.28s1.28 0.573 1.28 1.28v7.2c0 0.707-0.573 1.28-1.28 1.28z"></path>
</symbol>
<symbol id="delete" viewBox="0 0 32 32">
<path d="M9.667 5c0-1.841 1.492-3.333 3.333-3.333h6c1.841 0 3.333 1.492 3.333 3.333v0.667h6.667c0.736 0 1.333 0.597 1.333 1.333s-0.597 1.333-1.333 1.333h-1.667v16.667c0 2.945-2.388 5.333-5.333 5.333h-12c-2.946 0-5.333-2.388-5.333-5.333v-16.667h-1.667c-0.736 0-1.333-0.597-1.333-1.333s0.597-1.333 1.333-1.333h6.667v-0.667zM12.333 5.667h7.333v-0.667c0-0.368-0.299-0.667-0.667-0.667h-6c-0.368 0-0.667 0.298-0.667 0.667v0.667zM7.333 8.333v16.667c0 1.473 1.194 2.667 2.667 2.667h12c1.473 0 2.667-1.194 2.667-2.667v-16.667h-17.333zM16 10.667c0.736 0 1.333 0.597 1.333 1.333v12c0 0.736-0.597 1.333-1.333 1.333s-1.333-0.597-1.333-1.333v-12c0-0.736 0.597-1.333 1.333-1.333z"></path>
</symbol>
<symbol id="dislike" viewBox="0 0 32 32">
<path d="M13.132 27.667c0.186 0 0.359-0.099 0.453-0.26l0.008-0.014 6.115-9.914v-13.146h-11.448c-0.246 0-0.458 0.171-0.511 0.41l-0.005 0.021-3.4 13.279c-0.062 0.322 0.184 0.623 0.514 0.623h5.183c0.868 0 1.747 0.29 2.386 0.914 0.672 0.656 0.984 1.596 0.784 2.609l-0.958 4.851c-0.064 0.324 0.184 0.625 0.514 0.625h0.365zM22.374 4.333v12.191h4.725c0.288 0 0.522-0.232 0.524-0.52 0 0 0 0 0 0l0.085-11.143c0.002-0.291-0.233-0.528-0.524-0.528h-4.81zM21.785 19.191l-5.907 9.576c-0.574 0.97-1.617 1.567-2.746 1.567h-0.365c-2.010 0-3.519-1.837-3.13-3.809l0.958-4.851c0.017-0.086 0.006-0.126 0.003-0.134s-0.009-0.025-0.034-0.049c-0.056-0.054-0.222-0.156-0.524-0.156h-5.183c-2.041 0-3.557-1.891-3.114-3.883l0.005-0.021 3.402-13.289c0.333-1.447 1.622-2.475 3.109-2.475h18.924c1.771 0 3.204 1.443 3.19 3.215 0 0 0-0 0 0l-0.085 11.143c-0.013 1.752-1.438 3.166-3.19 3.166h-5.314z"></path>
</symbol>
<symbol id="down" viewBox="0 0 32 32">
<path d="M22.943 19.724c0.521 0.521 0.521 1.365 0 1.886l-6 6c-0.521 0.521-1.365 0.521-1.886 0l-6-6c-0.521-0.521-0.521-1.365 0-1.886s1.365-0.521 1.886 0l3.724 3.724v-18.114c0-0.736 0.597-1.333 1.333-1.333s1.333 0.597 1.333 1.333v18.114l3.724-3.724c0.521-0.521 1.365-0.521 1.886 0z"></path>
</symbol>
<symbol id="down-chevron" viewBox="0 0 32 32">
<path d="M26.276 11.057c0.521 0.521 0.521 1.365 0 1.886l-9.333 9.333c-0.521 0.521-1.365 0.521-1.886 0l-9.333-9.333c-0.521-0.521-0.521-1.365 0-1.886s1.365-0.521 1.886 0l8.391 8.391 8.391-8.391c0.521-0.521 1.365-0.521 1.886 0z"></path>
</symbol>
<symbol id="dribbble" viewBox="0 0 32 32">
<path d="M25.918 7.099l-0.187-0.204c-2.435-2.6-5.896-4.228-9.731-4.228-1.526 0-2.992 0.258-4.359 0.732l-0.139 0.049c-4.463 1.604-7.831 5.525-8.645 10.306-0.001 0.005-0.002 0.009-0.003 0.013-0.003 0.015-0.004 0.030-0.006 0.046-0.118 0.712-0.18 1.442-0.18 2.187 0 3.179 1.119 6.101 2.982 8.394 0.001 0.001 0.155 0.187 0.155 0.187 2.448 2.903 6.11 4.752 10.196 4.752 1.544 0 3.027-0.265 4.408-0.75 0.036-0.011 0.072-0.024 0.107-0.038 4.379-1.581 7.701-5.393 8.585-10.058 0.002-0.011 0.005-0.023 0.007-0.034 0.149-0.796 0.227-1.616 0.227-2.454 0-3.418-1.293-6.539-3.415-8.901zM16 5.333c2.742 0 5.246 1.040 7.137 2.747-1.325 1.815-3.177 3.008-5.206 3.778-0.338-0.79-0.676-1.505-1-2.143-0.939-1.849-1.86-3.266-2.579-4.254 0.537-0.084 1.087-0.127 1.647-0.127zM11.621 6.274c0.795 0.994 2.304 3.105 3.729 6.336-3.741 0.803-7.577 0.536-9.56 0.301 0.897-2.959 3.047-5.379 5.831-6.637zM5.333 16c0-0.152 0.004-0.302 0.010-0.452 1.063 0.133 2.638 0.277 4.476 0.277 0.89 0 1.841-0.034 2.824-0.119 1.31-0.114 2.545-0.31 3.703-0.585 0.255 0.717 0.5 1.474 0.729 2.272-1.201 0.35-2.442 0.786-3.721 1.311-2.758 1.131-5.006 2.396-6.262 3.157-1.111-1.683-1.759-3.697-1.759-5.86zM16 26.667c-2.744 0-5.25-1.042-7.142-2.751 1.779-1.045 5.12-2.828 8.87-3.93 0.418 1.924 0.735 4.042 0.895 6.354-0.839 0.213-1.718 0.327-2.623 0.327zM21.216 25.301c-0.187-2.15-0.504-4.132-0.9-5.941 1.963-0.366 3.965-0.475 5.855-0.143-0.824 2.598-2.618 4.769-4.955 6.084zM26.65 16.593c-2.117-0.377-4.451-0.319-6.985 0.171-0.243-0.856-0.502-1.663-0.768-2.422 2.503-0.958 4.528-2.368 6.014-4.198 1.109 1.682 1.756 3.695 1.756 5.856 0 0.199-0.006 0.397-0.017 0.593z"></path>
</symbol>
<symbol id="envelope-opened" viewBox="0 0 32 32">
<path d="M27.667 23.667v-11.667c0-0.736 0.597-1.333 1.333-1.333s1.333 0.597 1.333 1.333v11.667c0 3.682-2.985 6.667-6.667 6.667h-15.333c-3.682 0-6.667-2.985-6.667-6.667v-11.667c0-0.736 0.597-1.333 1.333-1.333s1.333 0.597 1.333 1.333v11.667c0 2.209 1.791 4 4 4h15.333c2.209 0 4-1.791 4-4z"></path>
<path d="M1.923 12.287c0.434 0.595 1.269 0.724 1.863 0.29l11.427-8.35c0.469-0.342 1.105-0.342 1.573 0l11.427 8.35c0.595 0.434 1.429 0.305 1.863-0.29s0.305-1.429-0.29-1.863l-11.427-8.35c-1.406-1.027-3.314-1.027-4.72 0l-11.427 8.35c-0.595 0.434-0.724 1.269-0.29 1.863z"></path>
<path d="M1.904 10.742c0.419-0.605 1.25-0.756 1.855-0.337l9.964 6.898c1.37 0.948 3.184 0.948 4.554 0l9.964-6.898c0.605-0.419 1.436-0.268 1.855 0.337s0.268 1.436-0.337 1.855l-9.964 6.898c-2.283 1.581-5.307 1.581-7.589 0l-9.964-6.898c-0.605-0.419-0.756-1.25-0.337-1.855z"></path>
</symbol>
<symbol id="external-link" viewBox="0 0 32 32">
<path d="M25.020 26.346v-5.269c0-0.717 0.581-1.299 1.299-1.299s1.299 0.581 1.299 1.299v5.269c0 3.122-2.531 5.654-5.653 5.654h-16.311c-3.122 0-5.653-2.531-5.653-5.654v-16.312c0-3.122 2.531-5.654 5.653-5.654l5.269 0c0.717 0 1.299 0.582 1.299 1.299s-0.582 1.299-1.299 1.299l-5.269-0c-1.688 0-3.056 1.368-3.056 3.056v16.312c0 1.688 1.368 3.056 3.056 3.056h16.311c1.688 0 3.056-1.368 3.056-3.056z"></path>
<path d="M27.239 4.761c0.507 0.507 0.507 1.33 0 1.837l-14.434 14.435c-0.507 0.507-1.33 0.507-1.837 0s-0.507-1.33 0-1.837l14.434-14.435c0.507-0.507 1.33-0.507 1.837 0z"></path>
<path d="M26.323 4.394c0.716 0.001 1.296 0.582 1.296 1.299v7.685c0 0.717-0.581 1.299-1.299 1.299s-1.299-0.581-1.299-1.299v-6.388l-6.402-0.012c-0.717-0.001-1.298-0.584-1.297-1.301s0.584-1.298 1.301-1.296l7.698 0.014z"></path>
</symbol>
<symbol id="eye" viewBox="0 0 32 32">
<path d="M3.521 11.357c3.605-3.008 7.756-4.69 12.146-4.69s8.54 1.683 12.146 4.69c0.565 0.472 1.406 0.396 1.878-0.17s0.396-1.406-0.17-1.878c-4.009-3.345-8.748-5.31-13.854-5.31s-9.845 1.965-13.854 5.31c-0.565 0.472-0.641 1.313-0.17 1.878s1.313 0.641 1.878 0.17z"></path>
<path d="M5.468 12.919c2.398-2.025 5.818-3.919 9.699-3.919s7.301 1.894 9.699 3.919c1.209 1.021 2.2 2.108 2.9 3.080 0.349 0.485 0.641 0.961 0.851 1.402 0.193 0.405 0.383 0.917 0.383 1.432s-0.19 1.027-0.383 1.432c-0.21 0.441-0.501 0.917-0.851 1.402-0.7 0.972-1.691 2.060-2.9 3.080-2.398 2.025-5.818 3.919-9.699 3.919s-7.301-1.894-9.699-3.919c-1.209-1.021-2.2-2.109-2.9-3.080-0.35-0.485-0.641-0.961-0.851-1.402-0.193-0.405-0.383-0.917-0.383-1.432s0.19-1.027 0.383-1.432c0.21-0.441 0.501-0.917 0.851-1.402 0.7-0.972 1.692-2.060 2.9-3.080zM4.009 18.833c0.013 0.045 0.045 0.138 0.115 0.287 0.123 0.259 0.323 0.595 0.606 0.988 0.565 0.783 1.404 1.713 2.457 2.602 2.126 1.795 4.956 3.29 7.979 3.29s5.853-1.495 7.979-3.29c1.053-0.889 1.893-1.819 2.457-2.602 0.283-0.393 0.483-0.729 0.606-0.988 0.071-0.149 0.102-0.242 0.115-0.287-0.013-0.045-0.045-0.139-0.115-0.287-0.123-0.259-0.323-0.595-0.606-0.988-0.565-0.783-1.404-1.713-2.457-2.602-0.447-0.377-0.925-0.742-1.43-1.082 0.185 0.62 0.285 1.278 0.285 1.959 0 3.774-3.059 6.833-6.833 6.833s-6.833-3.059-6.833-6.833c0-0.681 0.1-1.338 0.285-1.959-0.505 0.34-0.983 0.704-1.43 1.082-1.053 0.889-1.893 1.819-2.457 2.602-0.283 0.393-0.483 0.729-0.606 0.988-0.071 0.149-0.102 0.242-0.115 0.287zM11 15.833c0-2.301 1.865-4.167 4.167-4.167s4.167 1.865 4.167 4.167c0 2.301-1.865 4.167-4.167 4.167s-4.167-1.865-4.167-4.167z"></path>
</symbol>
<symbol id="facebook" viewBox="0 0 32 32">
<path d="M23.417 1.339l-3.703-0.006c-4.16 0-6.849 2.833-6.849 7.219v3.328h-3.723c-0.322 0-0.582 0.268-0.582 0.598v4.823c0 0.33 0.261 0.598 0.582 0.598h3.723v12.169c0 0.331 0.261 0.598 0.582 0.598h4.858c0.322 0 0.582-0.268 0.582-0.598v-12.169h4.353c0.322 0 0.582-0.268 0.582-0.598l0.002-4.823c0-0.159-0.062-0.311-0.171-0.423s-0.258-0.175-0.412-0.175h-4.355v-2.822c0-1.356 0.315-2.045 2.034-2.045l2.495-0.001c0.321 0 0.582-0.268 0.582-0.598v-4.478c0-0.33-0.26-0.598-0.581-0.598z"></path>
</symbol>
<symbol id="figma" viewBox="0 0 32 32">
<path d="M5.783 24.889c0-3.189 2.587-5.778 5.776-5.778h5.776v5.778c0 3.189-2.587 5.778-5.776 5.778s-5.776-2.588-5.776-5.778zM11.559 21.778c-1.716 0-3.11 1.394-3.11 3.111s1.394 3.111 3.11 3.111 3.11-1.394 3.11-3.111v-3.111h-3.11z"></path>
<path d="M11.559 12.89c-1.716 0-3.11 1.394-3.11 3.111s1.394 3.111 3.11 3.111h3.11v-6.222h-3.11zM5.783 16.001c0-3.189 2.587-5.778 5.776-5.778h5.776v11.555h-5.776c-3.189 0-5.776-2.588-5.776-5.778z"></path>
<path d="M11.559 4.001c-1.716 0-3.11 1.394-3.11 3.111s1.394 3.111 3.11 3.111h3.11v-6.222h-3.11zM5.783 7.112c0-3.189 2.587-5.778 5.776-5.778h5.776v11.555h-5.776c-3.189 0-5.776-2.588-5.776-5.778z"></path>
<path d="M14.67 1.335h5.776c3.189 0 5.776 2.588 5.776 5.778s-2.587 5.778-5.776 5.778h-5.777l0.001-11.555zM17.336 4.001l-0.001 6.222h3.111c1.716 0 3.11-1.394 3.11-3.111s-1.394-3.111-3.11-3.111h-3.11z"></path>
<path d="M20.446 12.89c-1.716 0-3.11 1.394-3.11 3.111s1.394 3.111 3.11 3.111 3.11-1.394 3.11-3.111c0-1.717-1.394-3.111-3.11-3.111zM14.67 16.001c0-3.189 2.587-5.778 5.776-5.778s5.776 2.588 5.776 5.778c0 3.189-2.587 5.778-5.776 5.778s-5.776-2.588-5.776-5.778z"></path>
</symbol>
<symbol id="files" viewBox="0 0 32 32">
<path d="M10.667 18c0-0.736 0.597-1.333 1.333-1.333h8c0.736 0 1.333 0.597 1.333 1.333s-0.597 1.333-1.333 1.333h-8c-0.736 0-1.333-0.597-1.333-1.333z"></path>
<path d="M10.667 23c0-0.736 0.597-1.333 1.333-1.333h4c0.736 0 1.333 0.597 1.333 1.333s-0.597 1.333-1.333 1.333h-4c-0.736 0-1.333-0.597-1.333-1.333z"></path>
<path d="M12.057 2.057c0.25-0.25 0.589-0.391 0.943-0.391h9c2.946 0 5.333 2.388 5.333 5.333v18c0 2.945-2.388 5.333-5.333 5.333h-12c-2.946 0-5.333-2.388-5.333-5.333l0-15c0-0.354 0.14-0.693 0.391-0.943l7-7zM12.667 5.219v4.448h-4.448l4.448-4.448zM7.333 12.333l-0 12.667c0 1.473 1.194 2.667 2.667 2.667h12c1.473 0 2.667-1.194 2.667-2.667v-18c0-1.473-1.194-2.667-2.667-2.667h-6.667v6.667c0 0.736-0.597 1.333-1.333 1.333h-6.667z"></path>
</symbol>
<symbol id="filter-1" viewBox="0 0 32 32">
<path d="M8.667 12.667c0.736 0 1.333 0.597 1.333 1.333v15c0 0.736-0.597 1.333-1.333 1.333s-1.333-0.597-1.333-1.333v-15c0-0.736 0.597-1.333 1.333-1.333z"></path>
<path d="M8.667 1.667c0.736 0 1.333 0.597 1.333 1.333v4c0 0.736-0.597 1.333-1.333 1.333s-1.333-0.597-1.333-1.333v-4c0-0.736 0.597-1.333 1.333-1.333z"></path>
<path d="M1.333 9.667c0-2.209 1.791-4 4-4h6.667c2.209 0 4 1.791 4 4v1.667c0 2.209-1.791 4-4 4h-6.667c-2.209 0-4-1.791-4-4v-1.667zM5.333 8.333c-0.736 0-1.333 0.597-1.333 1.333v1.667c0 0.736 0.597 1.333 1.333 1.333h6.667c0.736 0 1.333-0.597 1.333-1.333v-1.667c0-0.736-0.597-1.333-1.333-1.333h-6.667z"></path>
<path d="M23.333 23.667c0.736 0 1.333 0.597 1.333 1.333v4c0 0.736-0.597 1.333-1.333 1.333s-1.333-0.597-1.333-1.333v-4c0-0.736 0.597-1.333 1.333-1.333z"></path>
<path d="M23.333 1.667c0.736 0 1.333 0.597 1.333 1.333v15c0 0.736-0.597 1.333-1.333 1.333s-1.333-0.597-1.333-1.333v-15c0-0.736 0.597-1.333 1.333-1.333z"></path>
<path d="M16 20.667c0-2.209 1.791-4 4-4h6.667c2.209 0 4 1.791 4 4v1.667c0 2.209-1.791 4-4 4h-6.667c-2.209 0-4-1.791-4-4v-1.667zM20 19.333c-0.736 0-1.333 0.597-1.333 1.333v1.667c0 0.736 0.597 1.333 1.333 1.333h6.667c0.736 0 1.333-0.597 1.333-1.333v-1.667c0-0.736-0.597-1.333-1.333-1.333h-6.667z"></path>
</symbol>
<symbol id="filter-2" viewBox="0 0 32 32">
<path d="M23.333 12.667c0.736 0 1.333 0.597 1.333 1.333v15c0 0.736-0.597 1.333-1.333 1.333s-1.333-0.597-1.333-1.333v-15c0-0.736 0.597-1.333 1.333-1.333z"></path>
<path d="M23.333 1.667c0.736 0 1.333 0.597 1.333 1.333v4c0 0.736-0.597 1.333-1.333 1.333s-1.333-0.597-1.333-1.333v-4c0-0.736 0.597-1.333 1.333-1.333z"></path>
<path d="M16 9.667c0-2.209 1.791-4 4-4h6.667c2.209 0 4 1.791 4 4v1.667c0 2.209-1.791 4-4 4h-6.667c-2.209 0-4-1.791-4-4v-1.667zM20 8.333c-0.736 0-1.333 0.597-1.333 1.333v1.667c0 0.736 0.597 1.333 1.333 1.333h6.667c0.736 0 1.333-0.597 1.333-1.333v-1.667c0-0.736-0.597-1.333-1.333-1.333h-6.667z"></path>
<path d="M8.667 23.667c0.736 0 1.333 0.597 1.333 1.333v4c0 0.736-0.597 1.333-1.333 1.333s-1.333-0.597-1.333-1.333v-4c0-0.736 0.597-1.333 1.333-1.333z"></path>
<path d="M8.667 1.667c0.736 0 1.333 0.597 1.333 1.333v15c0 0.736-0.597 1.333-1.333 1.333s-1.333-0.597-1.333-1.333v-15c0-0.736 0.597-1.333 1.333-1.333z"></path>
<path d="M1.333 20.667c0-2.209 1.791-4 4-4h6.667c2.209 0 4 1.791 4 4v1.667c0 2.209-1.791 4-4 4h-6.667c-2.209 0-4-1.791-4-4v-1.667zM5.333 19.333c-0.736 0-1.333 0.597-1.333 1.333v1.667c0 0.736 0.597 1.333 1.333 1.333h6.667c0.736 0 1.333-0.597 1.333-1.333v-1.667c0-0.736-0.597-1.333-1.333-1.333h-6.667z"></path>
</symbol>
<symbol id="github" viewBox="0 0 32 32">
<path d="M20.933 30.667c-0.8 0-1.333-0.533-1.333-1.333v-5.733c0-1.067 0-1.067-0.4-1.467s-0.533-0.933-0.267-1.333c0.133-0.533 0.667-0.8 1.067-0.933 3.733-0.4 7.2-1.6 7.2-7.6 0-1.467-0.533-2.8-1.6-3.867-0.4-0.4-0.533-0.933-0.267-1.467 0.267-0.667 0.4-1.2 0.4-1.867 0-0.4 0-0.667-0.133-1.067-0.667 0.133-1.867 0.533-3.6 1.6-0.267 0.133-0.667 0.267-1.067 0.133-2.933-0.667-5.867-0.667-8.8 0-0.4 0.133-0.667 0-1.067-0.133-2-1.067-3.2-1.467-3.867-1.6 0 0.4-0.133 0.8-0.133 1.067 0 0.667 0.133 1.333 0.4 1.867 0.133 0.533 0 1.067-0.267 1.467-0.533 0.533-0.933 1.2-1.2 1.867s-0.4 1.333-0.4 2.133c0 5.6 2.933 7.067 7.2 7.6 0.533 0 0.933 0.4 1.067 0.933s0 1.067-0.267 1.333c-0.4 0.4-0.4 0.667-0.4 1.867v5.333c0 0.8-0.533 1.333-1.333 1.333s-1.333-0.533-1.333-1.333v-1.333c-4 0.533-5.6-1.733-6.8-3.333-0.533-0.667-0.933-1.333-1.333-1.467-0.667-0.133-1.2-0.933-0.933-1.6s0.933-1.2 1.6-0.933c1.333 0.4 2.133 1.467 2.933 2.533 1.067 1.467 2 2.8 4.533 2.267v-1.2c0-0.533-0.133-1.2 0-2-3.733-0.8-7.6-2.933-7.6-9.867 0-1.067 0.267-2.133 0.667-3.067 0.267-0.667 0.667-1.467 1.2-2-0.133-0.667-0.267-1.333-0.267-2.133 0-1.067 0.267-2 0.667-2.933 0.133-0.667 0.4-0.933 0.8-0.933 0.4-0.133 2.267-0.4 5.867 1.733 2.933-0.667 6-0.667 8.933 0 3.6-2.133 5.333-1.867 5.867-1.733 0.4 0.133 0.667 0.4 0.8 0.667 0.533 0.933 0.667 1.867 0.8 2.933 0 0.667 0 1.467-0.267 2.133 1.2 1.467 1.867 3.2 1.867 5.067 0 7.067-4 9.2-7.6 10 0.133 0.4 0.133 0.933 0 1.333v5.733c0 0.8-0.667 1.333-1.333 1.333z"></path>
</symbol>
<symbol id="gitlab" viewBox="0 0 32 32">
<path d="M7.019 1.337c0.566-0.039 1.094 0.284 1.318 0.805l4.098 9.562h7.131l4.098-9.562c0.223-0.521 0.752-0.844 1.318-0.805s1.045 0.432 1.194 0.979l4.444 16.296c0.142 0.519-0.043 1.073-0.468 1.403l-13.333 10.37c-0.481 0.374-1.156 0.374-1.637 0l-13.333-10.37c-0.425-0.331-0.609-0.884-0.468-1.403l4.444-16.296c0.149-0.547 0.628-0.94 1.194-0.979zM7.392 6.706l-3.205 11.75 11.813 9.188 11.813-9.188-3.205-11.75-2.939 6.856c-0.21 0.49-0.692 0.808-1.225 0.808h-8.889c-0.533 0-1.015-0.318-1.226-0.808l-2.938-6.856z"></path>
</symbol>
<symbol id="google" viewBox="0 0 32 32">
<path d="M16.281 14.004h13.167c0.145 0.811 0.218 1.586 0.218 2.325 0 2.627-0.551 4.973-1.653 7.038s-2.673 3.678-4.713 4.84c-2.040 1.162-4.38 1.743-7.019 1.743-1.901 0-3.711-0.366-5.43-1.099s-3.203-1.722-4.45-2.969c-1.247-1.247-2.237-2.73-2.969-4.45s-1.099-3.529-1.099-5.43c0-1.901 0.366-3.711 1.099-5.43s1.722-3.203 2.969-4.45c1.247-1.247 2.73-2.237 4.45-2.969s3.529-1.099 5.43-1.099c3.632 0 6.75 1.217 9.353 3.651l-3.796 3.65c-1.489-1.441-3.342-2.161-5.557-2.161-1.562 0-3.006 0.394-4.332 1.18s-2.376 1.856-3.151 3.206c-0.775 1.35-1.162 2.824-1.162 4.422s0.387 3.072 1.162 4.422c0.775 1.35 1.825 2.419 3.151 3.206s2.77 1.181 4.332 1.181c1.053 0 2.022-0.145 2.906-0.436s1.61-0.654 2.179-1.090 1.065-0.932 1.489-1.489c0.424-0.557 0.736-1.084 0.935-1.58s0.336-0.969 0.409-1.417h-7.919v-4.795z"></path>
</symbol>
<symbol id="google-hangouts" viewBox="0 0 32 32">
<path d="M28 14.333c0-6.444-5.371-11.667-12-11.667s-12 5.222-12 11.667c0 6.111 5.714 11.111 12 11.111v3.889c7.257-3.444 12-9.111 12-15zM17.143 11h5.143v5c0 1.556-1.029 2.778-2.286 2.778v-2.778h-2.857v-5zM15.429 16c0 1.556-1.029 2.778-2.286 2.778v-2.778h-2.857v-5h5.143v5z"></path>
</symbol>
<symbol id="grid" viewBox="0 0 32 32">
<path d="M1.333 4.667c0-1.841 1.492-3.333 3.333-3.333h6.667c1.841 0 3.333 1.492 3.333 3.333v6.667c0 1.841-1.492 3.333-3.333 3.333h-6.667c-1.841 0-3.333-1.492-3.333-3.333v-6.667zM4.667 4c-0.368 0-0.667 0.298-0.667 0.667v6.667c0 0.368 0.298 0.667 0.667 0.667h6.667c0.368 0 0.667-0.298 0.667-0.667v-6.667c0-0.368-0.298-0.667-0.667-0.667h-6.667z"></path>
<path d="M1.333 20.667c0-1.841 1.492-3.333 3.333-3.333h6.667c1.841 0 3.333 1.492 3.333 3.333v6.667c0 1.841-1.492 3.333-3.333 3.333h-6.667c-1.841 0-3.333-1.492-3.333-3.333v-6.667zM4.667 20c-0.368 0-0.667 0.299-0.667 0.667v6.667c0 0.368 0.298 0.667 0.667 0.667h6.667c0.368 0 0.667-0.299 0.667-0.667v-6.667c0-0.368-0.298-0.667-0.667-0.667h-6.667z"></path>
<path d="M17.333 4.667c0-1.841 1.492-3.333 3.333-3.333h6.667c1.841 0 3.333 1.492 3.333 3.333v6.667c0 1.841-1.492 3.333-3.333 3.333h-6.667c-1.841 0-3.333-1.492-3.333-3.333v-6.667zM20.667 4c-0.368 0-0.667 0.298-0.667 0.667v6.667c0 0.368 0.299 0.667 0.667 0.667h6.667c0.368 0 0.667-0.298 0.667-0.667v-6.667c0-0.368-0.299-0.667-0.667-0.667h-6.667z"></path>
<path d="M17.333 20.667c0-1.841 1.492-3.333 3.333-3.333h6.667c1.841 0 3.333 1.492 3.333 3.333v6.667c0 1.841-1.492 3.333-3.333 3.333h-6.667c-1.841 0-3.333-1.492-3.333-3.333v-6.667zM20.667 20c-0.368 0-0.667 0.299-0.667 0.667v6.667c0 0.368 0.299 0.667 0.667 0.667h6.667c0.368 0 0.667-0.299 0.667-0.667v-6.667c0-0.368-0.299-0.667-0.667-0.667h-6.667z"></path>
</symbol>
<symbol id="hanger" viewBox="0 0 32 32">
<path d="M30.445 21.479c-0 0-0 0 0 0l-11.522-7.201c-0.201-0.126-0.433-0.192-0.67-0.192h-0.989v-0.537c1.956-0.552 3.394-2.353 3.394-4.484 0-2.569-2.090-4.658-4.658-4.658s-4.658 2.090-4.658 4.658c0 0.698 0.566 1.264 1.264 1.264s1.264-0.566 1.264-1.264c0-1.174 0.955-2.13 2.13-2.13s2.13 0.956 2.13 2.13-0.955 2.13-2.13 2.13c-0.698 0-1.264 0.566-1.264 1.264v1.627h-0.989c-0.237 0-0.469 0.067-0.67 0.192l-11.522 7.201c-0.974 0.609-1.555 1.658-1.555 2.806 0 1.825 1.484 3.309 3.309 3.309h25.382c1.825 0 3.309-1.484 3.309-3.309 0-1.149-0.581-2.197-1.555-2.806v0zM28.691 25.065h-25.382c-0.431 0-0.781-0.35-0.781-0.781 0-0.271 0.137-0.519 0.367-0.662l11.214-7.009h3.781l11.214 7.009c0.23 0.144 0.367 0.391 0.367 0.662 0 0.43-0.35 0.781-0.781 0.781v0z"></path>
</symbol>
<symbol id="heart" viewBox="0 0 32 32">
<path d="M15.999 26.543c-6.132-3.493-9.552-6.964-11.206-9.976-1.693-3.083-1.545-5.679-0.606-7.522 1.931-3.788 7.421-4.999 10.766-0.768l1.046 1.323 1.046-1.323c3.346-4.231 8.836-3.019 10.767 0.768 0.939 1.843 1.087 4.439-0.606 7.522-1.654 3.012-5.074 6.483-11.207 9.976zM15.999 5.475c-4.706-4.471-11.647-2.623-14.188 2.36-1.394 2.735-1.413 6.27 0.644 10.016 2.039 3.713 6.104 7.633 12.898 11.388l0.645 0.357 0.645-0.356c6.795-3.755 10.86-7.675 12.899-11.388 2.057-3.747 2.038-7.281 0.644-10.016-2.54-4.983-9.482-6.831-14.188-2.36z"></path>
</symbol>
<symbol id="history" viewBox="0 0 32 32">
<path d="M5.144 0.667c0.736 0 1.333 0.597 1.333 1.333v2.845c2.562-2.189 5.889-3.512 9.523-3.512 8.1 0 14.667 6.566 14.667 14.667s-6.567 14.667-14.667 14.667c-8.1 0-14.667-6.567-14.667-14.667 0-0.736 0.597-1.333 1.333-1.333s1.333 0.597 1.333 1.333c0 6.627 5.373 12 12 12s12-5.373 12-12c0-6.627-5.373-12-12-12-2.858 0-5.482 0.998-7.543 2.667h2.69c0.736 0 1.333 0.597 1.333 1.333s-0.597 1.333-1.333 1.333h-6.003c-0.736 0-1.333-0.597-1.333-1.333v-6c0-0.736 0.597-1.333 1.333-1.333z"></path>
<path d="M16 7.467c0.663 0 1.2 0.537 1.2 1.2v6.836l3.649 3.649c0.469 0.469 0.469 1.228 0 1.697s-1.229 0.469-1.697 0l-4-4c-0.225-0.225-0.351-0.53-0.351-0.849v-7.333c0-0.663 0.537-1.2 1.2-1.2z"></path>
</symbol>
<symbol id="home" viewBox="0 0 32 32">
<path d="M17.045 5.562c-0.685-0.185-1.406-0.185-2.091 0-0.713 0.193-1.404 0.699-3.375 2.232l-3.467 2.696c-1.269 0.987-1.694 1.333-1.996 1.74-0.289 0.391-0.505 0.832-0.636 1.3-0.136 0.488-0.148 1.036-0.148 2.643v8.826c0 1.027 0.014 1.246 0.057 1.387 0.129 0.426 0.463 0.76 0.889 0.889 0.142 0.043 0.36 0.057 1.387 0.057h0.833c0.171 0 0.208-0 0.232-0.002 0.685-0.034 1.233-0.581 1.266-1.266 0.001-0.024 0.002-0.061 0.002-0.232v-3.833c0-3.314 2.686-6 6-6s6 2.686 6 6v3.833c0 0.171 0 0.208 0.002 0.232 0.034 0.685 0.581 1.233 1.266 1.266 0.024 0.001 0.061 0.002 0.232 0.002h0.833c1.027 0 1.245-0.014 1.387-0.057 0.426-0.129 0.76-0.463 0.889-0.889 0.043-0.141 0.057-0.36 0.057-1.387v-8.826c0-1.607-0.012-2.156-0.148-2.643-0.131-0.469-0.347-0.909-0.636-1.3-0.301-0.407-0.727-0.753-1.996-1.74l-3.467-2.696c-1.971-1.533-2.662-2.039-3.375-2.232zM14.258 2.988c1.141-0.309 2.344-0.309 3.485 0 1.298 0.351 2.436 1.238 4.088 2.524 0.075 0.058 0.15 0.117 0.227 0.177l3.467 2.696c0.048 0.037 0.095 0.074 0.142 0.11 1.072 0.834 1.814 1.41 2.361 2.149 0.482 0.652 0.841 1.386 1.060 2.167 0.248 0.884 0.247 1.824 0.247 3.182 0 0.059 0 0.119 0 0.18v8.826c0 0.057 0 0.112 0 0.168 0.001 0.762 0.002 1.42-0.172 1.993-0.388 1.278-1.388 2.279-2.667 2.667-0.574 0.174-1.232 0.173-1.993 0.172-0.055 0-0.111-0-0.168-0h-0.861c-0.127 0-0.236 0-0.335-0.005-2.055-0.101-3.698-1.744-3.799-3.799-0.005-0.099-0.005-0.208-0.005-0.335l0-3.861c0-1.841-1.492-3.333-3.333-3.333s-3.333 1.492-3.333 3.333v3.861c0 0.127 0 0.236-0.005 0.335-0.101 2.055-1.744 3.698-3.799 3.799-0.099 0.005-0.208 0.005-0.335 0.005h-0.861c-0.056 0-0.112 0-0.168 0-0.762 0.001-1.42 0.002-1.993-0.172-1.278-0.388-2.279-1.388-2.667-2.667-0.174-0.574-0.173-1.232-0.172-1.993 0-0.055 0-0.111 0-0.168v-8.826c0-0.061 0-0.121-0-0.18-0-1.358-0.001-2.298 0.247-3.182 0.219-0.781 0.578-1.515 1.060-2.167 0.546-0.738 1.288-1.315 2.361-2.149 0.047-0.036 0.094-0.073 0.142-0.11l3.467-2.696c0.077-0.060 0.152-0.119 0.227-0.177 1.652-1.286 2.791-2.173 4.088-2.524z"></path>
</symbol>
<symbol id="Info" viewBox="0 0 32 32">
<path d="M16 12.667c0.736 0 1.333 0.597 1.333 1.333v8c0 0.736-0.597 1.333-1.333 1.333s-1.333-0.597-1.333-1.333v-8c0-0.736 0.597-1.333 1.333-1.333z"></path>
<path d="M17.333 9.333c0 0.736-0.597 1.333-1.333 1.333s-1.333-0.597-1.333-1.333c0-0.736 0.597-1.333 1.333-1.333s1.333 0.597 1.333 1.333z"></path>
<path d="M16 4c-6.627 0-12 5.373-12 12s5.373 12 12 12c6.627 0 12-5.373 12-12s-5.373-12-12-12zM1.333 16c0-8.1 6.566-14.667 14.667-14.667s14.667 6.566 14.667 14.667c0 8.1-6.567 14.667-14.667 14.667s-14.667-6.567-14.667-14.667z"></path>
</symbol>
<symbol id="instagram" viewBox="0 0 32 32">
<path d="M29.307 10.507c-0.062-1.417-0.292-2.391-0.62-3.235-0.339-0.896-0.86-1.698-1.542-2.365-0.667-0.677-1.474-1.203-2.36-1.537-0.849-0.328-1.818-0.557-3.235-0.62-1.428-0.068-1.881-0.083-5.501-0.083s-4.074 0.016-5.496 0.078c-1.417 0.062-2.391 0.292-3.235 0.62-0.896 0.339-1.698 0.86-2.365 1.542-0.677 0.667-1.203 1.474-1.537 2.36-0.328 0.849-0.557 1.818-0.62 3.235-0.068 1.427-0.083 1.881-0.083 5.501s0.016 4.074 0.078 5.496c0.062 1.417 0.292 2.391 0.62 3.235 0.339 0.896 0.865 1.698 1.542 2.365 0.667 0.677 1.474 1.203 2.36 1.537 0.849 0.328 1.818 0.557 3.235 0.62 1.422 0.063 1.875 0.078 5.496 0.078s4.074-0.015 5.496-0.078c1.417-0.062 2.391-0.292 3.235-0.62 1.792-0.693 3.209-2.11 3.902-3.902 0.328-0.849 0.557-1.818 0.62-3.235 0.063-1.422 0.078-1.875 0.078-5.496s-0.005-4.074-0.068-5.496zM26.906 21.394c-0.057 1.302-0.276 2.006-0.459 2.474-0.448 1.162-1.37 2.084-2.532 2.532-0.469 0.182-1.177 0.401-2.475 0.458-1.406 0.063-1.828 0.078-5.386 0.078s-3.985-0.015-5.387-0.078c-1.302-0.057-2.006-0.276-2.474-0.458-0.578-0.214-1.104-0.552-1.531-0.995-0.443-0.432-0.781-0.953-0.995-1.531-0.182-0.469-0.401-1.177-0.458-2.474-0.063-1.407-0.078-1.829-0.078-5.387s0.015-3.985 0.078-5.386c0.057-1.302 0.276-2.006 0.458-2.474 0.214-0.578 0.552-1.104 1-1.532 0.432-0.443 0.953-0.781 1.531-0.995 0.469-0.182 1.177-0.401 2.474-0.458 1.407-0.062 1.829-0.078 5.386-0.078 3.563 0 3.985 0.016 5.387 0.078 1.302 0.057 2.006 0.276 2.474 0.458 0.578 0.213 1.104 0.552 1.531 0.995 0.443 0.432 0.781 0.953 0.995 1.532 0.182 0.469 0.401 1.177 0.459 2.474 0.062 1.407 0.078 1.828 0.078 5.386s-0.016 3.975-0.078 5.381z"></path>
<path d="M16.049 9.152c-3.782 0-6.85 3.068-6.85 6.85s3.068 6.85 6.85 6.85c3.782 0 6.85-3.068 6.85-6.85s-3.068-6.85-6.85-6.85zM16.049 20.446c-2.453 0-4.444-1.99-4.444-4.444s1.99-4.444 4.444-4.444c2.454 0 4.444 1.99 4.444 4.444s-1.99 4.444-4.444 4.444z"></path>
<path d="M24.77 8.881c0 0.883-0.716 1.599-1.599 1.599s-1.599-0.716-1.599-1.599c0-0.883 0.716-1.599 1.599-1.599s1.599 0.716 1.599 1.599z"></path>
</symbol>
<symbol id="instagram-filled" viewBox="0 0 32 32">
<path d="M2.667 16c0-5.588 0-8.383 1.401-10.31 0.452-0.623 1-1.17 1.622-1.622 1.928-1.401 4.722-1.401 10.31-1.401s8.383 0 10.31 1.401c0.623 0.452 1.17 1 1.622 1.622 1.401 1.928 1.401 4.722 1.401 10.31s0 8.383-1.401 10.31c-0.452 0.623-1 1.17-1.622 1.622-1.928 1.401-4.722 1.401-10.31 1.401s-8.383 0-10.31-1.401c-0.623-0.452-1.17-1-1.622-1.622-1.401-1.928-1.401-4.722-1.401-10.31zM16 8.941c-3.898 0-7.059 3.161-7.059 7.059s3.161 7.059 7.059 7.059c3.898 0 7.059-3.161 7.059-7.059s-3.161-7.059-7.059-7.059zM16 20.412c-2.432 0-4.412-1.98-4.412-4.412 0-2.433 1.98-4.412 4.412-4.412s4.412 1.978 4.412 4.412c0 2.432-1.98 4.412-4.412 4.412zM24.529 8.412c0 0.519-0.421 0.941-0.941 0.941s-0.941-0.421-0.941-0.941c0-0.519 0.421-0.941 0.941-0.941s0.941 0.421 0.941 0.941z"></path>
</symbol>
<symbol id="iphone" viewBox="0 0 32 32">
<path d="M11.333 3.896c-1.105 0-2 0.895-2 2v20.208c0 1.105 0.895 2 2 2h9.333c1.105 0 2-0.895 2-2v-20.208c0-1.105-0.895-2-2-2h-0.111l-0.325 0.779c-0.207 0.497-0.693 0.82-1.231 0.82h-6c-0.538 0-1.024-0.324-1.231-0.82l-0.325-0.779h-0.111zM6.667 5.896c0-2.577 2.089-4.667 4.667-4.667h9.333c2.577 0 4.667 2.089 4.667 4.667v20.208c0 2.577-2.089 4.667-4.667 4.667h-9.333c-2.577 0-4.667-2.089-4.667-4.667v-20.208z"></path>
</symbol>
<symbol id="layouts" viewBox="0 0 32 32">
<path d="M15.404 1.474c0.375-0.188 0.817-0.188 1.193 0l13.333 6.667c0.452 0.226 0.737 0.688 0.737 1.193s-0.285 0.967-0.737 1.193l-13.333 6.667c-0.375 0.188-0.817 0.188-1.193 0l-13.333-6.667c-0.452-0.226-0.737-0.688-0.737-1.193s0.285-0.967 0.737-1.193l13.333-6.667zM5.648 9.333l10.352 5.176 10.352-5.176-10.352-5.176-10.352 5.176z"></path>
<path d="M1.474 15.404c0.329-0.659 1.13-0.926 1.789-0.596l12.737 6.369 12.737-6.369c0.659-0.329 1.459-0.062 1.789 0.596s0.062 1.459-0.596 1.789l-13.333 6.667c-0.375 0.188-0.817 0.188-1.193 0l-13.333-6.667c-0.659-0.329-0.926-1.13-0.596-1.789z"></path>
<path d="M1.474 22.070c0.329-0.659 1.13-0.926 1.789-0.596l12.737 6.369 12.737-6.369c0.659-0.329 1.459-0.062 1.789 0.596s0.062 1.459-0.596 1.789l-13.333 6.667c-0.375 0.188-0.817 0.188-1.193 0l-13.333-6.667c-0.659-0.329-0.926-1.13-0.596-1.789z"></path>
</symbol>
<symbol id="left" viewBox="0 0 32 32">
<path d="M12.276 22.943c-0.521 0.521-1.365 0.521-1.886 0l-6-6c-0.521-0.521-0.521-1.365 0-1.886l6-6c0.521-0.521 1.365-0.521 1.886 0s0.521 1.365 0 1.886l-3.724 3.724h18.114c0.736 0 1.333 0.597 1.333 1.333s-0.597 1.333-1.333 1.333h-18.114l3.724 3.724c0.521 0.521 0.521 1.365 0 1.886z"></path>
</symbol>
<symbol id="left-chevron" viewBox="0 0 32 32">
<path d="M20.943 5.724c-0.521-0.521-1.365-0.521-1.886 0l-9.333 9.333c-0.521 0.521-0.521 1.365 0 1.886l9.333 9.333c0.521 0.521 1.365 0.521 1.886 0s0.521-1.365 0-1.886l-8.391-8.391 8.391-8.391c0.521-0.521 0.521-1.365 0-1.886z"></path>
</symbol>
<symbol id="like" viewBox="0 0 32 32">
<path d="M18.909 4.333c-0.186 0-0.358 0.099-0.453 0.26l-0.008 0.014-6.115 9.914v13.146h11.448c0.246 0 0.458-0.171 0.511-0.41l0.005-0.021 3.4-13.279c0.062-0.322-0.184-0.623-0.514-0.623h-5.183c-0.868 0-1.747-0.29-2.386-0.914-0.672-0.656-0.984-1.596-0.784-2.609l0.959-4.851c0.064-0.324-0.184-0.625-0.514-0.625h-0.365zM9.667 27.667v-12.191h-4.725c-0.288 0-0.522 0.232-0.524 0.52 0 0 0 0 0 0l-0.085 11.143c-0.002 0.291 0.233 0.528 0.524 0.528h4.81zM10.256 12.81l5.907-9.576c0.574-0.97 1.617-1.567 2.746-1.567h0.365c2.010 0 3.52 1.837 3.13 3.809l-0.958 4.851c-0.017 0.086-0.006 0.126-0.003 0.134s0.009 0.026 0.034 0.049c0.056 0.054 0.222 0.156 0.524 0.156h5.183c2.041 0 3.557 1.89 3.114 3.883l-0.005 0.021-3.402 13.288c-0.333 1.447-1.622 2.475-3.109 2.475h-18.924c-1.771 0-3.204-1.443-3.19-3.215 0 0 0 0 0 0l0.085-11.143c0.013-1.752 1.438-3.166 3.19-3.166h5.314z"></path>
</symbol>
<symbol id="linkedin" viewBox="0 0 32 32">
<path d="M29.327 29.333l0.007-0.001v-9.78c0-4.785-1.030-8.47-6.623-8.47-2.689 0-4.493 1.476-5.23 2.874h-0.078v-2.428h-5.303v17.803h5.522v-8.816c0-2.321 0.44-4.566 3.315-4.566 2.832 0 2.874 2.649 2.874 4.715v8.668h5.517z"></path>
<path d="M3.107 11.53h5.529v17.803h-5.529v-17.803z"></path>
<path d="M5.869 2.667c-1.768 0-3.202 1.434-3.202 3.202s1.434 3.232 3.202 3.232c1.768 0 3.202-1.464 3.202-3.232-0.001-1.768-1.436-3.202-3.202-3.202z"></path>
</symbol>
<symbol id="list" viewBox="0 0 32 32">
<path d="M1.333 4.667c0-1.841 1.492-3.333 3.333-3.333h22.667c1.841 0 3.333 1.492 3.333 3.333v6.667c0 1.841-1.492 3.333-3.333 3.333h-22.667c-1.841 0-3.333-1.492-3.333-3.333v-6.667zM4.667 4c-0.368 0-0.667 0.298-0.667 0.667v6.667c0 0.368 0.298 0.667 0.667 0.667h22.667c0.368 0 0.667-0.298 0.667-0.667v-6.667c0-0.368-0.299-0.667-0.667-0.667h-22.667z"></path>
<path d="M1.333 20.667c0-1.841 1.492-3.333 3.333-3.333h22.667c1.841 0 3.333 1.492 3.333 3.333v6.667c0 1.841-1.492 3.333-3.333 3.333h-22.667c-1.841 0-3.333-1.492-3.333-3.333v-6.667zM4.667 20c-0.368 0-0.667 0.299-0.667 0.667v6.667c0 0.368 0.298 0.667 0.667 0.667h22.667c0.368 0 0.667-0.299 0.667-0.667v-6.667c0-0.368-0.299-0.667-0.667-0.667h-22.667z"></path>
</symbol>
<symbol id="lock" viewBox="0 0 32 32">
<path d="M27.667 23.667v-6.333c0-2.209-1.791-4-4-4h-15.333c-2.209 0-4 1.791-4 4v6.333c0 2.209 1.791 4 4 4h15.333c2.209 0 4-1.791 4-4zM30.333 17.333v6.333c0 3.682-2.985 6.667-6.667 6.667h-15.333c-3.682 0-6.667-2.985-6.667-6.667v-6.333c0-3.682 2.985-6.667 6.667-6.667l15.333 0c3.682 0 6.667 2.985 6.667 6.667z"></path>
<path d="M16 4.333c-3.682 0-6.667 2.985-6.667 6.667h-2.667c0-5.155 4.179-9.333 9.333-9.333s9.333 4.179 9.333 9.333h-2.667c0-3.682-2.985-6.667-6.667-6.667z"></path>
<path d="M16 16.667c0.736 0 1.333 0.597 1.333 1.333v4c0 0.736-0.597 1.333-1.333 1.333s-1.333-0.597-1.333-1.333v-4c0-0.736 0.597-1.333 1.333-1.333z"></path>
</symbol>
<symbol id="login" viewBox="0 0 32 32">
<path d="M10 27.667c-0.736 0-1.333 0.597-1.333 1.333s0.597 1.333 1.333 1.333h13.667c3.682 0 6.667-2.985 6.667-6.667v-15.333c0-3.682-2.985-6.667-6.667-6.667h-13.667c-0.736 0-1.333 0.597-1.333 1.333s0.597 1.333 1.333 1.333h13.667c2.209 0 4 1.791 4 4v15.333c0 2.209-1.791 4-4 4h-13.667z"></path>
<path d="M24.333 16c0 0.354-0.141 0.693-0.391 0.943l-6 6c-0.521 0.521-1.365 0.521-1.886 0s-0.521-1.365 0-1.886l3.724-3.724h-16.781c-0.736 0-1.333-0.597-1.333-1.333s0.597-1.333 1.333-1.333h16.781l-3.724-3.724c-0.521-0.521-0.521-1.365 0-1.886s1.365-0.521 1.886 0l6 6c0.25 0.25 0.391 0.589 0.391 0.943z"></path>
</symbol>
<symbol id="logout" viewBox="0 0 32 32">
<path d="M22 27.667c0.736 0 1.333 0.597 1.333 1.333s-0.597 1.333-1.333 1.333h-13.667c-3.682 0-6.667-2.985-6.667-6.667v-15.333c0-3.682 2.985-6.667 6.667-6.667h13.667c0.736 0 1.333 0.597 1.333 1.333s-0.597 1.333-1.333 1.333h-13.667c-2.209 0-4 1.791-4 4v15.333c0 2.209 1.791 4 4 4h13.667z"></path>
<path d="M7.667 16c0 0.354 0.14 0.693 0.391 0.943l6 6c0.521 0.521 1.365 0.521 1.886 0s0.521-1.365 0-1.886l-3.724-3.724h16.781c0.736 0 1.333-0.597 1.333-1.333s-0.597-1.333-1.333-1.333h-16.781l3.724-3.724c0.521-0.521 0.521-1.365 0-1.886s-1.365-0.521-1.886 0l-6 6c-0.25 0.25-0.391 0.589-0.391 0.943z"></path>
</symbol>
<symbol id="mail" viewBox="0 0 32 32">
<path d="M30.333 24v-14.667c0-2.209-1.791-4-4-4l-20.667 0c-2.209 0-4 1.791-4 4v14.667c0 2.209 1.791 4 4 4h20.667c2.209 0 4-1.791 4-4zM27.667 12.346v11.654c0 0.736-0.597 1.333-1.333 1.333h-20.667c-0.736 0-1.333-0.597-1.333-1.333v-11.654l9.418 6.404c1.357 0.923 3.141 0.923 4.498 0l9.417-6.404zM27.651 9.131l-10.902 7.413c-0.453 0.308-1.047 0.308-1.499 0l-10.902-7.413c0.097-0.64 0.65-1.131 1.318-1.131l20.667-0c0.668 0 1.221 0.491 1.318 1.131z"></path>
</symbol>
<symbol id="mark" viewBox="0 0 32 32">
<path d="M28.943 7.057c0.521 0.521 0.521 1.365 0 1.886l-16 16c-0.521 0.521-1.365 0.521-1.886 0l-8-8c-0.521-0.521-0.521-1.365 0-1.886s1.365-0.521 1.886 0l7.057 7.057 15.057-15.057c0.521-0.521 1.365-0.521 1.886 0z"></path>
</symbol>
<symbol id="mention" viewBox="0 0 32 32">
<path d="M8.667 16c0-4.050 3.283-7.333 7.333-7.333s7.333 3.283 7.333 7.333c0 4.050-3.283 7.333-7.333 7.333s-7.333-3.283-7.333-7.333zM16 11.333c-2.577 0-4.667 2.089-4.667 4.667s2.089 4.667 4.667 4.667c2.577 0 4.667-2.089 4.667-4.667s-2.089-4.667-4.667-4.667z"></path>
<path d="M16 4.333c-6.443 0-11.667 5.223-11.667 11.667s5.223 11.667 11.667 11.667c0.736 0 1.333 0.597 1.333 1.333s-0.597 1.333-1.333 1.333c-7.916 0-14.333-6.417-14.333-14.333s6.417-14.333 14.333-14.333c7.916 0 14.333 6.417 14.333 14.333 0 1.498-0.266 3.665-0.961 5.505-0.649 1.718-1.953 3.828-4.372 3.828-1.186 0-2.363-0.311-3.214-1.252-0.824-0.912-1.119-2.176-1.119-3.581v-9.5c0-0.736 0.597-1.333 1.333-1.333s1.333 0.597 1.333 1.333v9.5c0 1.094 0.239 1.581 0.431 1.793 0.166 0.184 0.488 0.373 1.236 0.373 0.58 0 1.276-0.511 1.878-2.103 0.555-1.47 0.789-3.303 0.789-4.563 0-6.443-5.223-11.667-11.667-11.667z"></path>
</symbol>
<symbol id="messanger" viewBox="0 0 32 32">
<path d="M16 2.667c-7.363 0-13.333 5.527-13.333 12.345 0 3.885 1.938 7.35 4.968 9.613v4.708l4.54-2.492c1.212 0.335 2.495 0.517 3.825 0.517 7.363 0 13.333-5.527 13.333-12.345s-5.97-12.347-13.333-12.347zM17.325 19.292l-3.395-3.622-6.625 3.622 7.288-7.737 3.478 3.622 6.542-3.622-7.288 7.737z"></path>
</symbol>
<symbol id="mic" viewBox="0 0 32 32">
<path d="M8.267 8.533c0-4.271 3.462-7.733 7.733-7.733s7.733 3.462 7.733 7.733v6.4c0 4.271-3.462 7.733-7.733 7.733s-7.733-3.462-7.733-7.733v-6.4zM16 3.466c-2.798 0-5.067 2.268-5.067 5.067v6.4c0 2.798 2.268 5.067 5.067 5.067s5.067-2.268 5.067-5.067v-6.4c0-2.798-2.268-5.067-5.067-5.067z"></path>
<path d="M5.333 11.466c0.736 0 1.333 0.597 1.333 1.333v2.133c0 5.155 4.179 9.333 9.333 9.333s9.333-4.179 9.333-9.333v-2.133c0-0.736 0.597-1.333 1.333-1.333s1.333 0.597 1.333 1.333v2.133c0 6.627-5.373 12-12 12s-12-5.373-12-12v-2.133c0-0.736 0.597-1.333 1.333-1.333z"></path>
<path d="M16 25.333c0.736 0 1.333 0.597 1.333 1.333v1.867h2.933c0.736 0 1.333 0.597 1.333 1.333s-0.597 1.333-1.333 1.333h-8.533c-0.736 0-1.333-0.597-1.333-1.333s0.597-1.333 1.333-1.333h2.933v-1.867c0-0.736 0.597-1.333 1.333-1.333z"></path>
</symbol>
<symbol id="minus" viewBox="0 0 32 32">
<path d="M1.333 16c0-0.736 0.597-1.333 1.333-1.333v2.667c-0.736 0-1.333-0.597-1.333-1.333zM29.333 16l-0 1.333h-26.667v-2.667h26.666l0.001 1.333zM29.333 16l-0 1.333c0.736 0 1.333-0.597 1.333-1.333s-0.598-1.333-1.334-1.333l0.001 1.333z"></path>
</symbol>
<symbol id="minus-round" viewBox="0 0 32 32">
<path d="M7.667 16c0-0.736 0.597-1.333 1.333-1.333h14c0.736 0 1.333 0.597 1.333 1.333s-0.597 1.333-1.333 1.333h-14c-0.736 0-1.333-0.597-1.333-1.333z"></path>
<path d="M16 4c-6.627 0-12 5.373-12 12s5.373 12 12 12c6.627 0 12-5.373 12-12s-5.373-12-12-12zM1.333 16c0-8.1 6.566-14.667 14.667-14.667s14.667 6.566 14.667 14.667c0 8.1-6.567 14.667-14.667 14.667s-14.667-6.567-14.667-14.667z"></path>
</symbol>
<symbol id="odnoklassniki" viewBox="0 0 32 32">
<path d="M6.942 17.077c-0.763 1.473 0.103 2.177 2.080 3.379 1.68 1.019 4.001 1.392 5.493 1.541-0.611 0.577 2.189-2.068-5.876 5.55-1.71 1.61 1.043 4.192 2.752 2.617l4.626-4.382c1.771 1.673 3.469 3.277 4.626 4.388 1.71 1.581 4.462-0.979 2.771-2.617-0.127-0.119-6.269-5.905-5.895-5.55 1.51-0.149 3.796-0.544 5.456-1.541l-0.001-0.001c1.976-1.209 2.843-1.911 2.091-3.384-0.454-0.836-1.679-1.535-3.309-0.326 0 0-2.202 1.656-5.753 1.656-3.552 0-5.753-1.656-5.753-1.656-1.629-1.215-2.859-0.51-3.308 0.326z"></path>
<path d="M16.001 16.174c4.329 0 7.863-3.322 7.863-7.412 0-4.107-3.535-7.429-7.863-7.429-4.33 0-7.865 3.322-7.865 7.429 0 4.090 3.535 7.412 7.865 7.412zM16.001 5.097c2.127 0 3.862 1.639 3.862 3.665 0 2.009-1.735 3.648-3.862 3.648s-3.862-1.639-3.862-3.648c-0.001-2.028 1.734-3.665 3.862-3.665z"></path>
</symbol>
<symbol id="paypal" viewBox="0 0 32 32">
<path d="M14.115 30.667h-4.175c-0.269 0-0.539 0-0.808-0.133s-0.539-0.267-0.673-0.533c-0.135-0.267-0.404-0.533-0.404-0.8-0.135-0.267-0.135-0.667 0-0.933l0.135-0.533h-2.694c-1.481 0-2.828-1.333-2.828-2.8v-0.133l2.828-20.8c0.135-1.467 1.347-2.667 2.828-2.667h8.35c4.579 0 7.811 2.667 8.619 6.667 2.559 1.733 4.040 4.533 4.040 8 0 4.533-4.714 8-8.889 8h-2.828l-0.673 4.267c-0.135 0.667-0.404 1.333-0.943 1.733s-1.212 0.667-1.885 0.667zM10.613 28h3.367l0.135-0.133 0.808-5.467c0.135-0.667 0.673-1.067 1.347-1.067h3.906c2.828 0 6.195-2.4 6.195-5.333 0-1.067-0.269-2.933-1.212-4.4-0.808 3.867-4.714 7.2-8.62 7.2h-3.906c0 0-0.135 0.133-0.135 0.4l-1.616 7.467-0.269 1.333zM5.091 24.933l0.135 0.133h3.232l1.616-6.4c0.269-1.467 1.347-2.533 2.828-2.533h3.906c2.963 0 6.195-3.067 6.195-6.133 0-3.867-2.289-6.133-6.195-6.133h-8.485l-0.135 0.133v0.133l-3.098 20.8z"></path>
</symbol>
<symbol id="pinterest" viewBox="0 0 32 32">
<path d="M16.402 1.333c-8.098 0.001-12.402 5.153-12.402 10.77 0 2.605 1.466 5.855 3.813 6.885 0.67 0.299 0.581-0.066 1.157-2.254 0.046-0.182 0.022-0.34-0.126-0.51-3.355-3.854-0.655-11.776 7.079-11.776 11.192 0 9.101 15.378 1.947 15.378-1.844 0-3.217-1.437-2.783-3.216 0.527-2.118 1.558-4.395 1.558-5.922 0-3.848-5.773-3.277-5.773 1.821 0 1.575 0.561 2.639 0.561 2.639s-1.857 7.451-2.202 8.843c-0.583 2.357 0.079 6.171 0.137 6.5 0.036 0.181 0.24 0.238 0.354 0.089 0.183-0.238 2.428-3.419 3.057-5.718 0.229-0.837 1.168-4.235 1.168-4.235 0.619 1.11 2.404 2.039 4.305 2.039 5.657 0 9.746-4.938 9.746-11.065-0.020-5.874-5.082-10.269-11.598-10.269v0z"></path>
</symbol>
<symbol id="play" viewBox="0 0 32 32">
<path d="M21.424 13.881c1.396 1.067 1.396 3.17 0 4.237l-6.107 4.667c-1.755 1.341-4.286 0.090-4.286-2.119v-9.335c0-2.209 2.531-3.46 4.286-2.119l6.107 4.667zM19.804 16l-6.107-4.667v9.335l6.107-4.667z"></path>
<path d="M16 4c-6.627 0-12 5.373-12 12s5.373 12 12 12c6.627 0 12-5.373 12-12s-5.373-12-12-12zM1.333 16c0-8.1 6.566-14.667 14.667-14.667s14.667 6.566 14.667 14.667c0 8.1-6.567 14.667-14.667 14.667s-14.667-6.567-14.667-14.667z"></path>
</symbol>
<symbol id="plus" viewBox="0 0 32 32">
<path d="M16 1.333c0.736 0 1.333 0.597 1.333 1.333v12h12c0.736 0 1.333 0.597 1.333 1.333s-0.597 1.333-1.333 1.333h-12v12c0 0.736-0.597 1.333-1.333 1.333s-1.333-0.597-1.333-1.333v-12h-12c-0.736 0-1.333-0.597-1.333-1.333s0.597-1.333 1.333-1.333h12v-12c0-0.736 0.597-1.333 1.333-1.333z"></path>
</symbol>
<symbol id="plus-round" viewBox="0 0 32 32">
<path d="M7.667 16c0-0.736 0.597-1.333 1.333-1.333h14c0.736 0 1.333 0.597 1.333 1.333s-0.597 1.333-1.333 1.333h-14c-0.736 0-1.333-0.597-1.333-1.333z"></path>
<path d="M16 7.667c0.736 0 1.333 0.597 1.333 1.333v14c0 0.736-0.597 1.333-1.333 1.333s-1.333-0.597-1.333-1.333v-14c0-0.736 0.597-1.333 1.333-1.333z"></path>
<path d="M16 4c-6.627 0-12 5.373-12 12s5.373 12 12 12c6.627 0 12-5.373 12-12s-5.373-12-12-12zM1.333 16c0-8.1 6.566-14.667 14.667-14.667s14.667 6.566 14.667 14.667c0 8.1-6.567 14.667-14.667 14.667s-14.667-6.567-14.667-14.667z"></path>
</symbol>
<symbol id="profile" viewBox="0 0 32 32">
<path d="M16 4.333c-2.577 0-4.667 2.089-4.667 4.667s2.089 4.667 4.667 4.667c2.577 0 4.667-2.089 4.667-4.667s-2.089-4.667-4.667-4.667zM8.667 9c0-4.050 3.283-7.333 7.333-7.333s7.333 3.283 7.333 7.333-3.283 7.333-7.333 7.333c-4.050 0-7.333-3.283-7.333-7.333z"></path>
<path d="M8.139 20.333c-0.924 0-1.647 0.45-1.94 1.097-0.406 0.895-0.774 1.961-0.86 2.971-0.039 0.452 0.15 0.785 0.409 0.946 1.372 0.852 4.552 2.319 10.253 2.319s8.88-1.467 10.253-2.319c0.26-0.161 0.448-0.494 0.409-0.946-0.087-1.011-0.454-2.076-0.86-2.971-0.293-0.647-1.016-1.097-1.94-1.097h-15.722zM3.77 20.329c0.811-1.787 2.621-2.662 4.369-2.662h15.722c1.748 0 3.558 0.875 4.369 2.662 0.466 1.027 0.965 2.407 1.089 3.845 0.112 1.31-0.432 2.677-1.659 3.439-1.805 1.121-5.474 2.721-11.66 2.721s-9.855-1.599-11.66-2.721c-1.227-0.762-1.771-2.13-1.659-3.439 0.123-1.438 0.623-2.818 1.089-3.845z"></path>
</symbol>
<symbol id="right" viewBox="0 0 32 32">
<path d="M19.724 9.057c0.521-0.521 1.365-0.521 1.886 0l6 6c0.521 0.521 0.521 1.365 0 1.886l-6 6c-0.521 0.521-1.365 0.521-1.886 0s-0.521-1.365 0-1.886l3.724-3.724h-18.114c-0.736 0-1.333-0.597-1.333-1.333s0.597-1.333 1.333-1.333h18.114l-3.724-3.724c-0.521-0.521-0.521-1.365 0-1.886z"></path>
</symbol>
<symbol id="right-chevron" viewBox="0 0 32 32">
<path d="M11.057 5.724c0.521-0.521 1.365-0.521 1.886 0l9.333 9.333c0.521 0.521 0.521 1.365 0 1.886l-9.333 9.333c-0.521 0.521-1.365 0.521-1.886 0s-0.521-1.365 0-1.886l8.391-8.391-8.391-8.391c-0.521-0.521-0.521-1.365 0-1.886z"></path>
</symbol>
<symbol id="rss" viewBox="0 0 32 32">
<path d="M6.477 29.333c2.104 0 3.81-1.706 3.81-3.81s-1.706-3.81-3.81-3.81c-2.104 0-3.81 1.706-3.81 3.81s1.706 3.81 3.81 3.81z"></path>
<path d="M15.366 29.333h5.078c0-9.801-7.976-17.776-17.777-17.777v5.080c7.002 0.001 12.699 5.695 12.699 12.698z"></path>
<path d="M29.333 29.333c0-14.704-11.962-26.666-26.667-26.666v5.079c11.904 0 21.589 9.682 21.589 21.587h5.078z"></path>
</symbol>
<symbol id="search" viewBox="0 0 32 32">
<path d="M14.5 4.333c-5.615 0-10.167 4.552-10.167 10.167s4.552 10.167 10.167 10.167c2.805 0 5.343-1.134 7.184-2.973 1.844-1.842 2.983-4.384 2.983-7.194 0-5.615-4.552-10.167-10.167-10.167zM1.667 14.5c0-7.088 5.746-12.833 12.833-12.833s12.833 5.746 12.833 12.833c0 3.066-1.076 5.882-2.869 8.088l5.478 5.468c0.521 0.52 0.522 1.365 0.002 1.886s-1.365 0.522-1.886 0.002l-5.481-5.471c-2.205 1.788-5.017 2.86-8.077 2.86-7.088 0-12.833-5.746-12.833-12.833z"></path>
</symbol>
<symbol id="share" viewBox="0 0 32 32">
<path d="M24.5 4.333c-1.749 0-3.167 1.418-3.167 3.167 0 0.345 0.055 0.674 0.155 0.982 0.413 1.27 1.608 2.185 3.012 2.185 1.749 0 3.167-1.418 3.167-3.167s-1.418-3.167-3.167-3.167zM18.667 7.5c0-3.222 2.612-5.833 5.833-5.833s5.833 2.612 5.833 5.833c0 3.222-2.612 5.833-5.833 5.833-2.046 0-3.844-1.053-4.885-2.645l-6.495 3.253c0.297 1.086 0.276 2.244-0.060 3.318l7.107 3.336c1.067-1.183 2.613-1.929 4.334-1.929 3.222 0 5.833 2.612 5.833 5.833s-2.612 5.833-5.833 5.833c-3.222 0-5.833-2.612-5.833-5.833 0-0.541 0.074-1.065 0.212-1.563l-7.191-3.376c-1.059 1.092-2.543 1.772-4.187 1.772-3.222 0-5.833-2.612-5.833-5.833s2.612-5.833 5.833-5.833c1.724 0 3.272 0.748 4.338 1.934l6.866-3.438c-0.025-0.218-0.037-0.439-0.037-0.662zM7.5 12.333c-1.749 0-3.167 1.418-3.167 3.167s1.418 3.167 3.167 3.167c1.124 0 2.113-0.585 2.677-1.474 0.613-0.967 0.647-2.244 0.087-3.241-0.544-0.969-1.579-1.618-2.763-1.618zM24.5 21.333c-1.176 0-2.203 0.64-2.751 1.597-0.264 0.461-0.415 0.996-0.415 1.57 0 1.749 1.418 3.167 3.167 3.167s3.167-1.418 3.167-3.167c0-1.749-1.418-3.167-3.167-3.167z"></path>
</symbol>
<symbol id="shield" viewBox="0 0 32 32">
<path d="M4 8.169c0-3.775 2.985-6.836 6.667-6.836h10.667c3.682 0 6.667 3.061 6.667 6.836v7.945c0 5.762-3.637 10.469-8.231 13.437-2.302 1.487-5.236 1.487-7.538 0-4.593-2.967-8.231-7.675-8.231-13.437v-7.945zM10.667 4.068c-2.209 0-4 1.836-4 4.102v7.945c0 4.493 2.85 8.451 6.986 11.123 1.433 0.926 3.262 0.926 4.695 0 4.136-2.672 6.986-6.63 6.986-11.123v-7.945c0-2.265-1.791-4.102-4-4.102h-10.667z"></path>
<path d="M20.854 10.976c0.566 0.471 0.642 1.312 0.171 1.878l-5 6c-0.229 0.275-0.558 0.446-0.914 0.475s-0.709-0.085-0.98-0.318l-3-2.583c-0.558-0.48-0.621-1.322-0.14-1.88s1.322-0.621 1.88-0.14l1.973 1.699 4.133-4.959c0.471-0.566 1.312-0.642 1.878-0.171z"></path>
</symbol>
<symbol id="skype" viewBox="0 0 32 32">
<path d="M29.794 19.096c2.122-9.535-6.232-18.197-16.043-16.534-5.326-3.305-12.418 0.43-12.418 6.766 0 1.474 0.407 2.853 1.114 4.042-1.972 9.557 6.451 18.094 16.253 16.318 6.929 3.664 14.586-3.643 11.094-10.592v0zM20.468 24.846c-2.574 1.059-6.81 1.065-9.372-0.277-3.654-1.949-4.304-6.335-1.151-6.335 2.376 0 1.624 2.77 4.023 3.899 1.101 0.509 3.469 0.562 4.845-0.366 1.359-0.909 1.235-2.34 0.496-3.024-1.957-1.807-7.558-1.089-10.118-4.252-1.112-1.372-1.322-3.793 0.045-5.549 2.383-3.067 9.377-3.254 12.385-0.938 2.777 2.149 2.027 5.001-0.214 5.001-2.695 0-1.278-3.526-5.629-3.526-3.154 0-4.394 2.243-2.173 3.334 3.011 1.496 10.684 0.996 10.684 6.84-0.006 2.432-1.497 4.245-3.819 5.192v0z"></path>
</symbol>
<symbol id="slack" viewBox="0 0 32 32">
<path d="M19.333 4c-0.53 0-1.039 0.211-1.414 0.586s-0.586 0.884-0.586 1.414v8.667h4v-8.667c0-0.53-0.211-1.039-0.586-1.414s-0.884-0.586-1.414-0.586zM24 8.45v-2.45c0-1.238-0.492-2.425-1.367-3.3s-2.062-1.367-3.3-1.367c-1.238 0-2.425 0.492-3.3 1.367s-1.367 2.062-1.367 3.3v10c0 0.736 0.597 1.333 1.333 1.333h10c0.923 0 1.825-0.274 2.593-0.787s1.366-1.242 1.719-2.094 0.446-1.791 0.265-2.696c-0.18-0.905-0.624-1.737-1.277-2.389s-1.484-1.097-2.389-1.277c-0.905-0.18-1.844-0.088-2.696 0.266-0.072 0.030-0.144 0.062-0.214 0.095zM24 14.667h2c0.396 0 0.782-0.117 1.111-0.337s0.585-0.532 0.737-0.898c0.151-0.365 0.191-0.768 0.114-1.155s-0.268-0.744-0.547-1.024c-0.28-0.28-0.636-0.47-1.024-0.547s-0.79-0.038-1.155 0.114-0.678 0.408-0.898 0.737c-0.22 0.329-0.337 0.716-0.337 1.111v2z"></path>
<path d="M14.667 16c0-0.736 0.597-1.333 1.333-1.333h10c1.238 0 2.425 0.492 3.3 1.367s1.367 2.062 1.367 3.3-0.492 2.425-1.367 3.3c-0.875 0.875-2.062 1.367-3.3 1.367h-2.45c0.033 0.070 0.065 0.142 0.095 0.214 0.353 0.853 0.446 1.791 0.265 2.696s-0.624 1.737-1.277 2.389-1.484 1.097-2.389 1.277c-0.905 0.18-1.843 0.088-2.696-0.265s-1.582-0.951-2.094-1.719c-0.513-0.767-0.787-1.67-0.787-2.593v-10zM17.333 17.333v4h8.667c0.53 0 1.039-0.211 1.414-0.586s0.586-0.884 0.586-1.414c0-0.53-0.211-1.039-0.586-1.414s-0.884-0.586-1.414-0.586h-8.667zM19.333 24h-2v2c0 0.396 0.117 0.782 0.337 1.111s0.532 0.585 0.898 0.737 0.768 0.191 1.155 0.114c0.388-0.077 0.744-0.268 1.024-0.547s0.47-0.636 0.547-1.024c0.077-0.388 0.038-0.79-0.114-1.155s-0.408-0.678-0.737-0.898c-0.329-0.22-0.716-0.337-1.111-0.337z"></path>
<path d="M6 17.333h2v2c0 0.396-0.117 0.782-0.337 1.111s-0.532 0.585-0.898 0.737c-0.365 0.151-0.768 0.191-1.156 0.114s-0.744-0.268-1.024-0.547c-0.28-0.28-0.47-0.636-0.547-1.024s-0.038-0.79 0.114-1.155 0.408-0.678 0.737-0.898c0.329-0.22 0.716-0.337 1.111-0.337zM6 14.667h10c0.736 0 1.333 0.597 1.333 1.333v10c0 1.238-0.492 2.425-1.367 3.3s-2.062 1.367-3.3 1.367c-1.238 0-2.425-0.492-3.3-1.367s-1.367-2.062-1.367-3.3v-2.45c-0.070 0.033-0.142 0.065-0.214 0.095-0.853 0.353-1.791 0.446-2.696 0.265s-1.737-0.624-2.389-1.277-1.097-1.484-1.277-2.389c-0.18-0.905-0.088-1.843 0.266-2.696s0.951-1.582 1.719-2.094c0.767-0.513 1.67-0.787 2.593-0.787zM14.667 17.333h-4v8.667c0 0.53 0.211 1.039 0.586 1.414s0.884 0.586 1.414 0.586c0.53 0 1.039-0.211 1.414-0.586s0.586-0.884 0.586-1.414v-8.667z"></path>
<path d="M13.432 4.152c0.365 0.151 0.678 0.408 0.898 0.737s0.337 0.716 0.337 1.111v2h-2c-0.396 0-0.782-0.117-1.111-0.337s-0.585-0.532-0.737-0.898c-0.151-0.365-0.191-0.768-0.114-1.156s0.268-0.744 0.547-1.024c0.28-0.28 0.636-0.47 1.024-0.547s0.79-0.038 1.155 0.114zM17.333 6v10c0 0.736-0.597 1.333-1.333 1.333h-10c-1.238 0-2.425-0.492-3.3-1.367s-1.367-2.062-1.367-3.3c0-1.238 0.492-2.425 1.367-3.3s2.062-1.367 3.3-1.367h2.45c-0.033-0.070-0.065-0.142-0.095-0.214-0.353-0.853-0.446-1.791-0.266-2.696s0.625-1.737 1.277-2.389c0.653-0.653 1.484-1.097 2.389-1.277s1.844-0.088 2.696 0.266c0.853 0.353 1.582 0.951 2.094 1.719s0.787 1.67 0.787 2.593zM14.667 14.667v-4h-8.667c-0.53 0-1.039 0.211-1.414 0.586s-0.586 0.884-0.586 1.414c0 0.53 0.211 1.039 0.586 1.414s0.884 0.586 1.414 0.586h8.667z"></path>
</symbol>
<symbol id="slack-filled" viewBox="0 0 32 32">
<path d="M12.141 16.798c-1.701 0-3.081 1.38-3.081 3.081v7.708c0 1.701 1.38 3.081 3.081 3.081s3.081-1.38 3.081-3.081v-7.708c-0.001-1.701-1.381-3.081-3.081-3.081z"></path>
<path d="M1.356 19.879c0 1.703 1.381 3.084 3.084 3.084s3.084-1.381 3.084-3.084v-3.084h-3.081c-0.001 0-0.001 0-0.002 0-1.703 0-3.084 1.381-3.084 3.084z"></path>
<path d="M12.145 1.333c-0.001 0-0.002 0-0.004 0-1.703 0-3.084 1.381-3.084 3.084s1.381 3.084 3.084 3.084h3.081c0-1.749 0-1.324 0-3.090-0.001-1.7-1.379-3.078-3.078-3.078z"></path>
<path d="M4.418 15.232h7.722c1.703 0 3.084-1.381 3.084-3.084s-1.381-3.084-3.084-3.084h-7.722c-1.703 0-3.084 1.381-3.084 3.084s1.381 3.084 3.084 3.084z"></path>
<path d="M27.558 9.063c-1.7 0-3.078 1.378-3.078 3.078v3.090h3.081c1.703 0 3.084-1.381 3.084-3.084s-1.381-3.084-3.084-3.084c-0.001 0-0.003 0-0.004 0z"></path>
<path d="M16.783 4.417v7.731c0 1.701 1.38 3.081 3.081 3.081s3.081-1.38 3.081-3.081v-7.731c0-1.701-1.38-3.081-3.081-3.081s-3.081 1.38-3.081 3.081z"></path>
<path d="M22.944 27.585c0-1.701-1.38-3.081-3.081-3.081h-3.081v3.084c0.001 1.7 1.38 3.079 3.081 3.079s3.081-1.38 3.081-3.081z"></path>
<path d="M27.587 16.795h-7.723c-1.703 0-3.084 1.381-3.084 3.084s1.381 3.084 3.084 3.084h7.723c1.703 0 3.084-1.381 3.084-3.084s-1.381-3.084-3.084-3.084z"></path>
</symbol>
<symbol id="star" viewBox="0 0 32 32">
<path d="M13.559 2.935c0.926-2.136 3.956-2.136 4.882 0l2.802 6.462 7.012 0.668c2.318 0.221 3.254 3.102 1.509 4.643l-5.28 4.662 1.531 6.875c0.506 2.273-1.945 4.053-3.95 2.87l-6.065-3.581-6.065 3.581c-2.005 1.184-4.456-0.597-3.95-2.87l1.531-6.875-5.28-4.662c-1.745-1.541-0.809-4.422 1.509-4.643l7.012-0.668 2.802-6.462zM18.802 10.456l-2.802-6.462-2.802 6.462c-0.386 0.889-1.224 1.498-2.189 1.59l-7.012 0.668 5.28 4.662c0.726 0.641 1.047 1.627 0.836 2.573l-1.531 6.875 6.065-3.581c0.835-0.493 1.871-0.493 2.705 0l6.065 3.581-1.531-6.875c-0.211-0.946 0.11-1.931 0.836-2.573l5.28-4.662-7.012-0.668c-0.965-0.092-1.803-0.701-2.189-1.59z"></path>
</symbol>
<symbol id="stripe" viewBox="0 0 32 32">
<path d="M28.382 14.025c-0.543 0-1.137 0.404-1.137 1.375h2.222c0-0.971-0.56-1.375-1.085-1.375z"></path>
<path d="M21.269 18.201c-0.508 0-0.81-0.181-1.016-0.404l-0.009-3.188c0.224-0.249 0.534-0.421 1.025-0.421 0.784 0 1.326 0.877 1.326 2.002 0 1.151-0.534 2.011-1.326 2.011z"></path>
<path d="M3.75 4c-2.071 0-3.75 1.679-3.75 3.75v16.5c0 2.071 1.679 3.75 3.75 3.75h24.5c2.071 0 3.75-1.679 3.75-3.75v-16.5c0-2.071-1.679-3.75-3.75-3.75h-24.5zM28.391 12.28c2.041 0 3.109 1.736 3.109 3.936 0 0.119-0.006 0.317-0.011 0.486-0.004 0.124-0.007 0.232-0.007 0.279h-4.211c0.095 1.014 0.835 1.306 1.671 1.306 0.853 0 1.524-0.18 2.11-0.473v1.719c-0.586 0.327-1.361 0.559-2.386 0.559-2.101 0-3.565-1.306-3.565-3.893 0-2.183 1.24-3.918 3.29-3.918zM21.786 12.28c-0.844 0-1.387 0.395-1.688 0.67l-0.112-0.533h-1.895v10.020l2.153-0.455 0.009-2.432c0.31 0.223 0.767 0.541 1.524 0.541 1.542 0 2.945-1.237 2.945-3.961-0.009-2.492-1.43-3.85-2.937-3.85zM17.285 9.563v1.744l-2.162 0.464v-1.753l2.162-0.455zM17.285 12.418h-2.162v7.519h2.162v-7.519zM12.669 12.43l0.138 0.636c0.508-0.928 1.516-0.739 1.791-0.636v1.976c-0.267-0.095-1.128-0.215-1.636 0.447v5.096h-2.153v-7.519h1.86zM8.499 10.558l-2.101 0.447-0.009 6.883c0 1.272 0.956 2.208 2.231 2.208 0.706 0 1.223-0.129 1.507-0.284v-1.744c-0.276 0.112-1.636 0.507-1.636-0.765v-3.051h1.636v-1.83h-1.636l0.009-1.865zM3.411 14.145c-0.456 0-0.732 0.129-0.732 0.464 0 0.366 0.474 0.527 1.063 0.727 0.959 0.325 2.222 0.754 2.227 2.341 0 1.538-1.232 2.423-3.023 2.423-0.741 0-1.55-0.146-2.351-0.49v-2.045c0.723 0.395 1.636 0.687 2.351 0.687 0.482 0 0.827-0.129 0.827-0.524 0-0.405-0.514-0.591-1.135-0.814-0.945-0.341-2.138-0.77-2.138-2.202 0-1.521 1.163-2.432 2.911-2.432 0.715 0 1.421 0.112 2.136 0.395v2.019c-0.655-0.352-1.481-0.55-2.136-0.55z"></path>
</symbol>
<symbol id="telegram" viewBox="0 0 32 32">
<path d="M12.844 20.242l-0.485 7.445c0.694 0 0.995-0.325 1.355-0.716l3.255-3.393 6.744 5.388c1.237 0.752 2.108 0.356 2.442-1.241l4.427-22.629 0.001-0.001c0.392-1.995-0.661-2.775-1.866-2.285l-26.022 10.868c-1.776 0.752-1.749 1.832-0.302 2.321l6.653 2.257 15.453-10.548c0.727-0.525 1.388-0.235 0.845 0.291l-12.5 12.244z"></path>
</symbol>
<symbol id="top-Left" viewBox="0 0 32 32">
<path d="M6.667 8c0-0.736 0.597-1.333 1.333-1.333h9.333c0.736 0 1.333 0.597 1.333 1.333s-0.597 1.333-1.333 1.333h-6.114l13.724 13.724c0.521 0.521 0.521 1.365 0 1.886s-1.365 0.521-1.886 0l-13.724-13.724v6.114c0 0.736-0.597 1.333-1.333 1.333s-1.333-0.597-1.333-1.333v-9.333z"></path>
</symbol>
<symbol id="top-Right" viewBox="0 0 32 32">
<path d="M13.333 8c0-0.736 0.597-1.333 1.333-1.333h9.333c0.736 0 1.333 0.597 1.333 1.333v9.333c0 0.736-0.597 1.333-1.333 1.333s-1.333-0.597-1.333-1.333v-6.114l-13.724 13.724c-0.521 0.521-1.365 0.521-1.886 0s-0.521-1.365 0-1.886l13.724-13.724h-6.114c-0.736 0-1.333-0.597-1.333-1.333z"></path>
</symbol>
<symbol id="tumblr" viewBox="0 0 32 32">
<path d="M24 28.948l-1.343-4.186c-0.523 0.262-1.517 0.488-2.249 0.512h-0.104c-2.129 0-2.546-1.675-2.565-2.898v-9.13h5.601v-4.44h-5.581v-7.473h-4.086c-0.067 0-0.185 0.062-0.201 0.219-0.231 2.289-1.255 6.302-5.473 7.907v3.788h2.807v9.585c0 3.245 2.251 7.836 8.169 7.836l-0.013-0.002h0.207c2.041-0.037 4.323-0.939 4.83-1.716v0z"></path>
</symbol>
<symbol id="twitch" viewBox="0 0 32 32">
<path d="M2.667 7.769v20.404h6.998v3.827h3.821l3.815-3.828h5.728l7.638-7.649v-17.857h-26.092l-1.908 5.103zM7.12 5.215h21.002v14.030l-4.455 4.463h-7.001l-3.815 3.822v-3.822h-5.73v-18.493z"></path>
<path d="M14.121 10.321h2.544v7.651h-2.544v-7.651z"></path>
<path d="M21.119 10.321h2.545v7.651h-2.545v-7.651z"></path>
</symbol>
<symbol id="twitter" viewBox="0 0 32 32">
<path d="M30 7.696c-1.031 0.437-2.136 0.734-3.298 0.866 1.186-0.68 2.094-1.759 2.525-3.041-1.113 0.63-2.341 1.087-3.65 1.335-1.048-1.071-2.539-1.737-4.192-1.737-3.172 0-5.744 2.463-5.744 5.498 0 0.431 0.051 0.851 0.149 1.253-4.773-0.23-9.005-2.419-11.838-5.746-0.495 0.811-0.777 1.756-0.777 2.764 0 1.908 1.015 3.592 2.555 4.577-0.941-0.030-1.827-0.278-2.602-0.69v0.069c0 2.664 1.981 4.887 4.607 5.393-0.481 0.124-0.989 0.193-1.513 0.193-0.371 0-0.73-0.035-1.081-0.102 0.731 2.186 2.852 3.776 5.365 3.82-1.965 1.474-4.442 2.351-7.133 2.351-0.464 0-0.92-0.027-1.37-0.075 2.542 1.563 5.56 2.475 8.804 2.475 10.566 0 16.342-8.38 16.342-15.648l-0.019-0.712c1.129-0.771 2.105-1.739 2.873-2.841z"></path>
</symbol>
<symbol id="unlock" viewBox="0 0 32 32">
<path d="M27.667 23.667v-6.333c0-2.209-1.791-4-4-4h-15.333c-2.209 0-4 1.791-4 4v6.333c0 2.209 1.791 4 4 4h15.333c2.209 0 4-1.791 4-4zM30.333 17.333v6.333c0 3.682-2.985 6.667-6.667 6.667h-15.333c-3.682 0-6.667-2.985-6.667-6.667v-6.333c0-3.682 2.985-6.667 6.667-6.667l15.333 0c3.682 0 6.667 2.985 6.667 6.667z"></path>
<path d="M16 4.333c-3.682 0-6.667 2.985-6.667 6.667 0 0.736-0.597 1.333-1.333 1.333s-1.333-0.597-1.333-1.333c0-5.155 4.179-9.333 9.333-9.333 2.206 0 4.236 0.767 5.834 2.048 0.575 0.461 0.667 1.3 0.206 1.874s-1.3 0.667-1.874 0.206c-1.142-0.915-2.588-1.462-4.166-1.462z"></path>
<path d="M16 16.667c0.736 0 1.333 0.597 1.333 1.333v4c0 0.736-0.597 1.333-1.333 1.333s-1.333-0.597-1.333-1.333v-4c0-0.736 0.597-1.333 1.333-1.333z"></path>
</symbol>
<symbol id="up" viewBox="0 0 32 32">
<path d="M9.057 12.276c-0.521-0.521-0.521-1.365 0-1.886l6-6c0.521-0.521 1.365-0.521 1.886 0l6 6c0.521 0.521 0.521 1.365 0 1.886s-1.365 0.521-1.886 0l-3.724-3.724v18.114c0 0.736-0.597 1.333-1.333 1.333s-1.333-0.597-1.333-1.333v-18.114l-3.724 3.724c-0.521 0.521-1.365 0.521-1.886 0z"></path>
</symbol>
<symbol id="up-chevron" viewBox="0 0 32 32">
<path d="M5.724 20.943c-0.521-0.521-0.521-1.365 0-1.886l9.333-9.333c0.521-0.521 1.365-0.521 1.886 0l9.333 9.333c0.521 0.521 0.521 1.365 0 1.886s-1.365 0.521-1.886 0l-8.391-8.391-8.391 8.391c-0.521 0.521-1.365 0.521-1.886 0z"></path>
</symbol>
<symbol id="upload" viewBox="0 0 32 32">
<path d="M15.057 2.057c0.521-0.521 1.365-0.521 1.886 0l6 6c0.521 0.521 0.521 1.365 0 1.886s-1.365 0.521-1.886 0l-3.724-3.724v16.781c0 0.736-0.597 1.333-1.333 1.333s-1.333-0.597-1.333-1.333v-16.781l-3.724 3.724c-0.521 0.521-1.365 0.521-1.886 0s-0.521-1.365 0-1.886l6-6zM3 18.667c0.736 0 1.333 0.597 1.333 1.333v5c0 1.473 1.194 2.667 2.667 2.667h18c1.473 0 2.667-1.194 2.667-2.667v-5c0-0.736 0.597-1.333 1.333-1.333s1.333 0.597 1.333 1.333v5c0 2.945-2.388 5.333-5.333 5.333h-18c-2.946 0-5.333-2.388-5.333-5.333v-5c0-0.736 0.597-1.333 1.333-1.333z"></path>
</symbol>
<symbol id="viber" viewBox="0 0 32 32">
<path d="M29.061 18.315c0.868-7.36-0.417-12.006-2.735-14.108l0.001-0.001c-3.741-3.589-16.373-4.12-20.849 0.161-2.010 2.094-2.718 5.168-2.795 8.973-0.078 3.806-0.17 10.937 6.425 12.871h0.006l-0.006 2.954c0 0-0.045 1.197 0.714 1.437 0.868 0.283 1.261-0.272 3.96-3.521 4.514 0.394 7.981-0.509 8.375-0.641 0.911-0.308 6.069-0.995 6.903-8.125zM14.228 25.003c0 0-2.857 3.589-3.745 4.521-0.291 0.303-0.61 0.275-0.605-0.326 0-0.395 0.022-4.904 0.022-4.904-5.592-1.614-5.262-7.686-5.201-10.862 0.061-3.177 0.638-5.78 2.339-7.532 3.926-3.709 15.001-2.879 17.823-0.208 3.45 3.081 2.222 11.785 2.229 12.082-0.709 5.952-4.889 6.329-5.657 6.587-0.329 0.11-3.377 0.9-7.205 0.642z"></path>
<path d="M15.809 6.597c-0.467 0-0.467 0.733 0 0.739 3.621 0.028 6.603 2.571 6.635 7.234 0 0.492 0.715 0.486 0.709-0.006-0.039-5.025-3.296-7.939-7.344-7.967z"></path>
<path d="M20.571 13.796c-0.011 0.486 0.703 0.509 0.709 0.017 0.059-2.771-1.636-5.053-4.823-5.294-0.467-0.034-0.515 0.705-0.050 0.739 2.764 0.211 4.219 2.111 4.164 4.538z"></path>
<path d="M19.808 16.948c-0.599-0.349-1.209-0.132-1.461 0.211l-0.527 0.687c-0.268 0.349-0.769 0.303-0.769 0.303-3.653-0.973-4.63-4.825-4.63-4.825s-0.045-0.521 0.29-0.801l0.659-0.55c0.33-0.264 0.538-0.899 0.202-1.523-0.897-1.633-1.499-2.196-1.806-2.628-0.322-0.407-0.807-0.498-1.312-0.223h-0.011c-1.048 0.618-2.196 1.774-1.829 2.965 0.627 1.255 1.778 5.257 5.448 8.281 1.725 1.43 4.455 2.895 5.613 3.234l0.011 0.017c1.142 0.383 2.252-0.818 2.845-1.906v-0.009c0.263-0.526 0.176-1.025-0.208-1.351-0.681-0.669-1.709-1.408-2.516-1.883z"></path>
<path d="M16.957 11.245c1.165 0.068 1.73 0.681 1.79 1.94 0.022 0.492 0.731 0.458 0.709-0.034-0.078-1.644-0.929-2.56-2.461-2.645-0.467-0.028-0.51 0.711-0.039 0.739z"></path>
</symbol>
<symbol id="vimeo" viewBox="0 0 32 32">
<path d="M26.385 2.674c-4.067-0.154-6.815 2.269-8.265 7.23 0.745-0.347 1.47-0.502 2.172-0.502 1.49 0 2.149 0.885 1.973 2.644-0.088 1.065-0.743 2.615-1.97 4.653-1.233 2.038-2.155 3.059-2.768 3.059-1.86 0-2.979-9.249-3.357-11.775-0.527-3.511-1.931-5.153-4.213-4.923-2.095 0.207-5.75 4.126-8.623 6.782l1.38 1.869c1.314-0.968 2.080-1.453 2.299-1.453 2.287 0 3.394 8.085 5.17 14.097 1.192 3.318 2.62 4.978 4.342 4.978 2.767 0 6.138-2.723 10.132-8.17 3.856-5.215 5.853-9.326 5.981-12.324l0.016-0.013c0.164-4.019-1.248-6.076-4.269-6.154v0z"></path>
</symbol>
<symbol id="vkontakte" viewBox="0 0 32 32">
<path d="M26.553 17.371c-0.517-0.653-0.369-0.944 0-1.528 0.007-0.007 4.277-5.908 4.717-7.909l0.003-0.001c0.219-0.729 0-1.265-1.057-1.265h-3.499c-0.891 0-1.301 0.46-1.521 0.975 0 0-1.781 4.264-4.301 7.028-0.813 0.799-1.189 1.055-1.633 1.055-0.219 0-0.559-0.256-0.559-0.985v-6.807c0-0.875-0.249-1.265-0.987-1.265h-5.501c-0.559 0-0.891 0.408-0.891 0.788 0 0.829 1.26 1.020 1.391 3.353v5.063c0 1.109-0.201 1.313-0.648 1.313-1.189 0-4.076-4.281-5.787-9.181-0.345-0.951-0.683-1.335-1.58-1.335h-3.5c-0.999 0-1.2 0.46-1.2 0.975 0 0.909 1.189 5.431 5.531 11.404 2.893 4.077 6.968 6.287 10.675 6.287 2.228 0 2.5-0.491 2.5-1.335 0-3.896-0.201-4.264 0.915-4.264 0.517 0 1.408 0.256 3.488 2.223 2.377 2.332 2.768 3.376 4.099 3.376h3.499c0.997 0 1.503-0.491 1.212-1.459-0.665-2.036-5.161-6.224-5.364-6.504v0z"></path>
</symbol>
<symbol id="wallet" viewBox="0 0 32 32">
<path d="M5.667 4.333c-0.736 0-1.333 0.597-1.333 1.333v20.667c0 0.736 0.597 1.333 1.333 1.333h20.667c0.736 0 1.333-0.597 1.333-1.333v-4.228c-0.417 0.147-0.866 0.228-1.333 0.228h-7.667c-2.209 0-4-1.791-4-4v-4.667c0-2.209 1.791-4 4-4h7.667c0.467 0 0.916 0.080 1.333 0.228v-4.228c0-0.736-0.597-1.333-1.333-1.333l-20.667-0zM30.333 5.667c0-2.209-1.791-4-4-4l-20.667-0c-2.209 0-4 1.791-4 4v20.667c0 2.209 1.791 4 4 4h20.667c2.209 0 4-1.791 4-4v-20.667zM27.667 13.667c0-0.736-0.597-1.333-1.333-1.333h-7.667c-0.736 0-1.333 0.597-1.333 1.333v4.667c0 0.736 0.597 1.333 1.333 1.333h7.667c0.736 0 1.333-0.597 1.333-1.333v-4.667zM21 16.333c0.184 0 0.333-0.149 0.333-0.333s-0.149-0.333-0.333-0.333c-0.184 0-0.333 0.149-0.333 0.333s0.149 0.333 0.333 0.333zM18.667 16c0-1.289 1.045-2.333 2.333-2.333s2.333 1.045 2.333 2.333c0 1.289-1.045 2.333-2.333 2.333s-2.333-1.045-2.333-2.333z"></path>
</symbol>
<symbol id="wechat" viewBox="0 0 32 32">
<path d="M12.219 2.25c-6.256 0-11.344 4.406-11.344 9.821 0 2.862 1.407 5.518 3.889 7.403l-0.953 1.98c-0.178 0.367-0.115 0.813 0.157 1.112 0.181 0.2 0.433 0.308 0.688 0.308 0.125 0 0.251-0.025 0.372-0.079l3.343-1.487c1.567 0.493 3.239 0.642 4.916 0.542 0.522-0.027 0.923-0.491 0.894-1.033-0.028-0.544-0.524-0.988-0.994-0.927-1.565 0.083-3.12-0.061-4.564-0.562-0.219-0.075-0.458-0.063-0.671 0.029l-1.295 0.577 0.17-0.355c0.217-0.452 0.068-1.004-0.346-1.271-2.361-1.532-3.715-3.805-3.715-6.239 0-4.333 4.241-7.857 9.453-7.857s9.453 3.524 9.453 7.857c0 0.295-0.013 0.572-0.061 0.849-0.093 0.534 0.251 1.045 0.764 1.139 0.522 0.1 1.004-0.259 1.097-0.794 0.066-0.391 0.091-0.782 0.091-1.194 0-5.416-5.088-9.821-11.344-9.821z"></path>
<path d="M27.92 25.804c2.021-1.485 3.205-3.626 3.205-5.875 0-4.333-4.241-7.857-9.453-7.857s-9.453 3.524-9.453 7.857c0 4.799 5.142 8.672 11.162 7.722l4.536 2.021c0.119 0.051 0.248 0.079 0.372 0.079 0.255 0 0.507-0.108 0.688-0.31 0.274-0.299 0.337-0.742 0.159-1.112l-1.216-2.524zM26.225 24.6c-0.435 0.259-0.599 0.825-0.376 1.291l0.441 0.919-2.416-1.078c-0.117-0.051-0.246-0.079-0.372-0.079-0.055 0-0.108 0.004-0.161 0.014-0.581 0.106-1.127 0.155-1.668 0.155-4.171 0-7.563-2.644-7.563-5.893s3.392-5.893 7.563-5.893c4.171 0 7.563 2.644 7.563 5.893 0 1.831-1.097 3.534-3.010 4.671z"></path>
<path d="M8.475 8.143h-0.019c-0.522 0-0.936 0.44-0.936 0.982s0.433 0.982 0.955 0.982c0.522 0 0.945-0.44 0.945-0.982s-0.424-0.982-0.945-0.982z"></path>
<path d="M16.037 8.143h-0.019c-0.522 0-0.936 0.44-0.936 0.982s0.433 0.982 0.955 0.982c0.522 0 0.945-0.44 0.945-0.982s-0.423-0.982-0.945-0.982z"></path>
<path d="M18.873 16.982h-0.019c-0.524 0-0.936 0.44-0.936 0.982s0.433 0.982 0.955 0.982c0.522 0 0.945-0.44 0.945-0.982s-0.423-0.982-0.945-0.982z"></path>
<path d="M24.545 16.982h-0.019c-0.522 0-0.936 0.44-0.936 0.982s0.435 0.982 0.955 0.982c0.522 0 0.945-0.44 0.945-0.982s-0.423-0.982-0.945-0.982z"></path>
</symbol>
<symbol id="whatsapp" viewBox="0 0 32 32">
<path d="M29.333 15.657c0 7.174-5.86 12.99-13.091 12.99-2.295 0-4.452-0.587-6.328-1.616l-7.248 2.303 2.363-6.969c-1.192-1.957-1.879-4.253-1.879-6.707 0-7.174 5.861-12.99 13.091-12.99s13.091 5.816 13.091 12.99zM16.242 4.735c-6.069 0-11.006 4.899-11.006 10.921 0 2.39 0.779 4.603 2.097 6.403l-1.375 4.056 4.23-1.344c1.738 1.141 3.82 1.807 6.055 1.807 6.068 0 11.006-4.899 11.006-10.921s-4.937-10.922-11.007-10.922zM22.853 18.648c-0.081-0.132-0.295-0.212-0.615-0.371s-1.899-0.93-2.193-1.036c-0.294-0.106-0.509-0.159-0.722 0.159s-0.829 1.036-1.016 1.248c-0.187 0.213-0.374 0.24-0.695 0.080s-1.354-0.496-2.58-1.58c-0.954-0.844-1.598-1.886-1.785-2.205s-0.020-0.491 0.141-0.649c0.145-0.143 0.321-0.372 0.481-0.558s0.214-0.319 0.321-0.531c0.107-0.212 0.054-0.398-0.027-0.558s-0.722-1.726-0.99-2.364c-0.267-0.637-0.534-0.531-0.722-0.531s-0.401-0.027-0.615-0.027-0.562 0.080-0.856 0.398c-0.294 0.319-1.123 1.089-1.123 2.656s1.149 3.081 1.31 3.293c0.16 0.212 2.219 3.532 5.481 4.807s3.263 0.849 3.851 0.796c0.588-0.053 1.898-0.77 2.167-1.513 0.267-0.744 0.267-1.382 0.187-1.514z"></path>
</symbol>
<symbol id="youtube" viewBox="0 0 32 32">
<path d="M28.52 5.485c-2.504-0.685-12.521-0.685-12.521-0.685s-10.016 0-12.521 0.659c-1.344 0.369-2.451 1.476-2.82 2.847-0.659 2.504-0.659 7.697-0.659 7.697s0 5.219 0.659 7.697c0.369 1.371 1.45 2.451 2.821 2.821 2.53 0.685 12.521 0.685 12.521 0.685s10.016 0 12.52-0.659c1.371-0.369 2.451-1.45 2.821-2.82 0.659-2.504 0.659-7.697 0.659-7.697s0.026-5.219-0.659-7.723c-0.369-1.371-1.45-2.451-2.82-2.821zM21.14 16.002l-8.329 4.797v-9.595l8.329 4.797z"></path>
</symbol>
</defs>
</svg>
